<?xml version="1.0" encoding="UTF-8"?>
<!--Generator: Apple Native CoreSVG 149-->
<!DOCTYPE svg
PUBLIC "-//W3C//DTD SVG 1.1//EN"
       "http://www.w3.org/Graphics/SVG/1.1/DTD/svg11.dtd">
<svg version="1.1" xmlns="http://www.w3.org/2000/svg" xmlns:xlink="http://www.w3.org/1999/xlink" width="3300" height="2200">
 <!--glyph: "uni100C6F.medium", point size: 100.000000, font version: "Version 16.0d18e1", template writer version: "8"-->
 <g id="Notes">
  <rect height="2200" id="artboard" style="fill:white;opacity:1" width="3300" x="0" y="0"/>
  <line id="" style="fill:none;stroke:black;opacity:1;stroke-width:0.5;" x1="263" x2="3036" y1="292" y2="292"/>
  <text style="stroke:none;fill:black;font-family:-apple-system,&quot;SF Pro Display&quot;,&quot;SF Pro Text&quot;,Helvetica,sans-serif;font-weight:bold;" transform="matrix(1 0 0 1 263 322)">Weight/Scale Variations</text>
  <text style="stroke:none;fill:black;font-family:-apple-system,&quot;SF Pro Display&quot;,&quot;SF Pro Text&quot;,Helvetica,sans-serif;text-anchor:middle;" transform="matrix(1 0 0 1 559.711 322)">Ultralight</text>
  <text style="stroke:none;fill:black;font-family:-apple-system,&quot;SF Pro Display&quot;,&quot;SF Pro Text&quot;,Helvetica,sans-serif;text-anchor:middle;" transform="matrix(1 0 0 1 856.422 322)">Thin</text>
  <text style="stroke:none;fill:black;font-family:-apple-system,&quot;SF Pro Display&quot;,&quot;SF Pro Text&quot;,Helvetica,sans-serif;text-anchor:middle;" transform="matrix(1 0 0 1 1153.13 322)">Light</text>
  <text style="stroke:none;fill:black;font-family:-apple-system,&quot;SF Pro Display&quot;,&quot;SF Pro Text&quot;,Helvetica,sans-serif;text-anchor:middle;" transform="matrix(1 0 0 1 1449.84 322)">Regular</text>
  <text style="stroke:none;fill:black;font-family:-apple-system,&quot;SF Pro Display&quot;,&quot;SF Pro Text&quot;,Helvetica,sans-serif;text-anchor:middle;" transform="matrix(1 0 0 1 1746.56 322)">Medium</text>
  <text style="stroke:none;fill:black;font-family:-apple-system,&quot;SF Pro Display&quot;,&quot;SF Pro Text&quot;,Helvetica,sans-serif;text-anchor:middle;" transform="matrix(1 0 0 1 2043.27 322)">Semibold</text>
  <text style="stroke:none;fill:black;font-family:-apple-system,&quot;SF Pro Display&quot;,&quot;SF Pro Text&quot;,Helvetica,sans-serif;text-anchor:middle;" transform="matrix(1 0 0 1 2339.98 322)">Bold</text>
  <text style="stroke:none;fill:black;font-family:-apple-system,&quot;SF Pro Display&quot;,&quot;SF Pro Text&quot;,Helvetica,sans-serif;text-anchor:middle;" transform="matrix(1 0 0 1 2636.69 322)">Heavy</text>
  <text style="stroke:none;fill:black;font-family:-apple-system,&quot;SF Pro Display&quot;,&quot;SF Pro Text&quot;,Helvetica,sans-serif;text-anchor:middle;" transform="matrix(1 0 0 1 2933.4 322)">Black</text>
  <line id="" style="fill:none;stroke:black;opacity:1;stroke-width:0.5;" x1="263" x2="3036" y1="1903" y2="1903"/>
  <g id="" transform="matrix(1 0 0 1 263 1933)">
   <path d="M9.24805 0.830078C13.5547 0.830078 17.1387-2.74414 17.1387-7.05078C17.1387-11.3574 13.5449-14.9316 9.23828-14.9316C4.94141-14.9316 1.36719-11.3574 1.36719-7.05078C1.36719-2.74414 4.95117 0.830078 9.24805 0.830078ZM9.24805-0.654297C5.70312-0.654297 2.87109-3.49609 2.87109-7.05078C2.87109-10.6055 5.69336-13.4473 9.23828-13.4473C12.793-13.4473 15.6348-10.6055 15.6445-7.05078C15.6543-3.49609 12.8027-0.654297 9.24805-0.654297ZM6.39648-6.31836L8.50586-6.31836L8.50586-4.19922C8.50586-3.75977 8.79883-3.45703 9.22852-3.45703C9.67773-3.45703 9.9707-3.75977 9.9707-4.19922L9.9707-6.31836L12.0996-6.31836C12.5391-6.31836 12.8418-6.61133 12.8418-7.04102C12.8418-7.48047 12.5391-7.7832 12.0996-7.7832L9.9707-7.7832L9.9707-9.89258C9.9707-10.3418 9.67773-10.6445 9.22852-10.6445C8.79883-10.6445 8.50586-10.3418 8.50586-9.89258L8.50586-7.7832L6.39648-7.7832C5.94727-7.7832 5.64453-7.48047 5.64453-7.04102C5.64453-6.61133 5.94727-6.31836 6.39648-6.31836Z"/>
  </g>
  <g id="" transform="matrix(1 0 0 1 281.506 1933)">
   <path d="M11.709 2.91016C17.1582 2.91016 21.6699-1.61133 21.6699-7.05078C21.6699-12.5 17.1484-17.0117 11.6992-17.0117C6.25977-17.0117 1.74805-12.5 1.74805-7.05078C1.74805-1.61133 6.26953 2.91016 11.709 2.91016ZM11.709 1.25C7.09961 1.25 3.41797-2.44141 3.41797-7.05078C3.41797-11.6602 7.08984-15.3516 11.6992-15.3516C16.3086-15.3516 20-11.6602 20.0098-7.05078C20.0195-2.44141 16.3184 1.25 11.709 1.25ZM7.98828-6.23047L10.8789-6.23047L10.8789-3.32031C10.8789-2.83203 11.2109-2.5 11.6895-2.5C12.1777-2.5 12.5195-2.83203 12.5195-3.32031L12.5195-6.23047L15.4297-6.23047C15.918-6.23047 16.25-6.5625 16.25-7.04102C16.25-7.5293 15.918-7.87109 15.4297-7.87109L12.5195-7.87109L12.5195-10.7617C12.5195-11.2695 12.1777-11.6016 11.6895-11.6016C11.2109-11.6016 10.8789-11.2598 10.8789-10.7617L10.8789-7.87109L7.98828-7.87109C7.48047-7.87109 7.14844-7.5293 7.14844-7.04102C7.14844-6.5625 7.49023-6.23047 7.98828-6.23047Z"/>
  </g>
  <g id="" transform="matrix(1 0 0 1 304.924 1933)">
   <path d="M14.9707 5.66406C21.9336 5.66406 27.6953-0.0976562 27.6953-7.05078C27.6953-14.0137 21.9238-19.7754 14.9609-19.7754C8.00781-19.7754 2.25586-14.0137 2.25586-7.05078C2.25586-0.0976562 8.01758 5.66406 14.9707 5.66406ZM14.9707 3.84766C8.93555 3.84766 4.08203-1.01562 4.08203-7.05078C4.08203-13.0957 8.92578-17.9492 14.9609-17.9492C21.0059-17.9492 25.8594-13.0957 25.8691-7.05078C25.8789-1.01562 21.0156 3.84766 14.9707 3.84766ZM10.0586-6.14258L14.0625-6.14258L14.0625-2.12891C14.0625-1.5918 14.4336-1.2207 14.9512-1.2207C15.4883-1.2207 15.8594-1.5918 15.8594-2.12891L15.8594-6.14258L19.8828-6.14258C20.4102-6.14258 20.791-6.51367 20.791-7.03125C20.791-7.56836 20.4199-7.94922 19.8828-7.94922L15.8594-7.94922L15.8594-11.9531C15.8594-12.5098 15.4883-12.8809 14.9512-12.8809C14.4336-12.8809 14.0625-12.5 14.0625-11.9531L14.0625-7.94922L10.0586-7.94922C9.50195-7.94922 9.13086-7.56836 9.13086-7.03125C9.13086-6.51367 9.51172-6.14258 10.0586-6.14258Z"/>
  </g>
  <text style="stroke:none;fill:black;font-family:-apple-system,&quot;SF Pro Display&quot;,&quot;SF Pro Text&quot;,Helvetica,sans-serif;font-weight:bold;" transform="matrix(1 0 0 1 263 1953)">Design Variations</text>
  <text style="stroke:none;fill:black;font-family:-apple-system,&quot;SF Pro Display&quot;,&quot;SF Pro Text&quot;,Helvetica,sans-serif;" transform="matrix(1 0 0 1 263 1971)">Symbols are supported in up to nine weights and three scales.</text>
  <text style="stroke:none;fill:black;font-family:-apple-system,&quot;SF Pro Display&quot;,&quot;SF Pro Text&quot;,Helvetica,sans-serif;" transform="matrix(1 0 0 1 263 1989)">For optimal layout with text and other symbols, vertically align</text>
  <text style="stroke:none;fill:black;font-family:-apple-system,&quot;SF Pro Display&quot;,&quot;SF Pro Text&quot;,Helvetica,sans-serif;" transform="matrix(1 0 0 1 263 2007)">symbols with the adjacent text.</text>
  <line id="" style="fill:none;stroke:#00AEEF;stroke-width:0.5;opacity:1.0;" x1="776" x2="776" y1="1919" y2="1933"/>
  <g id="" transform="matrix(1 0 0 1 776 1933)">
   <path d="M3.31055 0.126953C3.82812 0.126953 4.08203-0.0683594 4.26758-0.605469L5.52734-4.0625L11.2891-4.0625L12.5488-0.605469C12.7344-0.0683594 12.9883 0.126953 13.4961 0.126953C14.0137 0.126953 14.3457-0.185547 14.3457-0.673828C14.3457-0.839844 14.3164-0.986328 14.2383-1.20117L9.6582-13.3887C9.43359-13.9941 9.0332-14.2871 8.4082-14.2871C7.80273-14.2871 7.39258-13.9941 7.17773-13.3984L2.59766-1.19141C2.51953-0.976562 2.49023-0.830078 2.49023-0.664062C2.49023-0.175781 2.80273 0.126953 3.31055 0.126953ZM6.00586-5.53711L8.37891-12.1094L8.42773-12.1094L10.8008-5.53711Z"/>
  </g>
  <line id="" style="fill:none;stroke:#00AEEF;stroke-width:0.5;opacity:1.0;" x1="792.836" x2="792.836" y1="1919" y2="1933"/>
  <text style="stroke:none;fill:black;font-family:-apple-system,&quot;SF Pro Display&quot;,&quot;SF Pro Text&quot;,Helvetica,sans-serif;font-weight:bold;" transform="matrix(1 0 0 1 776 1953)">Margins</text>
  <text style="stroke:none;fill:black;font-family:-apple-system,&quot;SF Pro Display&quot;,&quot;SF Pro Text&quot;,Helvetica,sans-serif;" transform="matrix(1 0 0 1 776 1971)">Leading and trailing margins on the left and right side of each symbol</text>
  <text style="stroke:none;fill:black;font-family:-apple-system,&quot;SF Pro Display&quot;,&quot;SF Pro Text&quot;,Helvetica,sans-serif;" transform="matrix(1 0 0 1 776 1989)">can be adjusted by modifying the x-location of the margin guidelines.</text>
  <text style="stroke:none;fill:black;font-family:-apple-system,&quot;SF Pro Display&quot;,&quot;SF Pro Text&quot;,Helvetica,sans-serif;" transform="matrix(1 0 0 1 776 2007)">Modifications are automatically applied proportionally to all</text>
  <text style="stroke:none;fill:black;font-family:-apple-system,&quot;SF Pro Display&quot;,&quot;SF Pro Text&quot;,Helvetica,sans-serif;" transform="matrix(1 0 0 1 776 2025)">scales and weights.</text>
  <g id="" transform="matrix(1 0 0 1 1289 1933)">
   <path d="M2.8418 1.86523L4.54102 3.57422C5.40039 4.44336 6.38672 4.38477 7.31445 3.35938L17.4902-7.85156C17.7539-7.76367 18.0273-7.7832 18.3398-7.8418L19.4043-8.03711L20.0684-7.36328L20.0293-6.80664C19.9902-6.30859 20.1172-5.92773 20.6055-5.44922L21.3672-4.70703C21.8457-4.22852 22.4609-4.19922 22.9297-4.66797L25.8398-7.58789C26.3086-8.05664 26.2891-8.65234 25.8105-9.13086L25.0391-9.89258C24.5605-10.3711 24.1895-10.5273 23.7109-10.4883L23.1348-10.4395L22.4902-11.0742L22.7344-12.1973C22.8613-12.7637 22.7051-13.2031 22.1191-13.7891L19.9219-15.9766C16.582-19.2969 12.1484-19.2188 9.25781-16.3281C8.83789-15.918 8.80859-15.3418 9.04297-14.9512C9.27734-14.5898 9.73633-14.3555 10.3809-14.5215C11.8457-14.8633 13.3691-14.9219 14.7949-13.9844L14.209-12.5293C14.0137-12.0508 13.9844-11.6504 14.1113-11.2891L3.04688-0.898438C2.06055 0.0195312 1.98242 0.996094 2.8418 1.86523ZM10.752-15.957C13.1836-17.7344 16.4746-17.4316 18.7012-15.2051L21.1328-12.793C21.3672-12.5586 21.4062-12.373 21.3379-12.0312L21.0156-10.5469L22.5195-9.0625L23.5059-9.12109C23.7598-9.13086 23.8379-9.11133 24.0332-8.91602L24.6094-8.33984L22.168-5.89844L21.5918-6.47461C21.3965-6.66992 21.3672-6.74805 21.377-7.01172L21.4453-7.98828L19.9512-9.47266L18.4277-9.21875C18.1055-9.15039 17.959-9.17969 17.7148-9.41406L15.7129-11.416C15.459-11.6504 15.4297-11.8164 15.5859-12.1875L16.4648-14.2773C14.9023-15.7324 12.8711-16.3574 10.8398-15.7617C10.6836-15.7227 10.625-15.8496 10.752-15.957ZM5.27344 2.30469L4.10156 1.14258C3.63281 0.683594 3.74023 0.341797 4.14062-0.0195312L14.9512-10.1953L16.416-8.71094L6.42578 2.27539C6.07422 2.67578 5.74219 2.77344 5.27344 2.30469Z"/>
  </g>
  <text style="stroke:none;fill:black;font-family:-apple-system,&quot;SF Pro Display&quot;,&quot;SF Pro Text&quot;,Helvetica,sans-serif;font-weight:bold;" transform="matrix(1 0 0 1 1289 1953)">Exporting</text>
  <text style="stroke:none;fill:black;font-family:-apple-system,&quot;SF Pro Display&quot;,&quot;SF Pro Text&quot;,Helvetica,sans-serif;" transform="matrix(1 0 0 1 1289 1971)">Symbols should be outlined when exporting to ensure the</text>
  <text style="stroke:none;fill:black;font-family:-apple-system,&quot;SF Pro Display&quot;,&quot;SF Pro Text&quot;,Helvetica,sans-serif;" transform="matrix(1 0 0 1 1289 1989)">design is preserved when submitting to Xcode.</text>
  <text id="template-version" style="stroke:none;fill:black;font-family:-apple-system,&quot;SF Pro Display&quot;,&quot;SF Pro Text&quot;,Helvetica,sans-serif;text-anchor:end;" transform="matrix(1 0 0 1 3036 1933)">Template v.2.0</text>
  <text style="stroke:none;fill:black;font-family:-apple-system,&quot;SF Pro Display&quot;,&quot;SF Pro Text&quot;,Helvetica,sans-serif;text-anchor:end;" transform="matrix(1 0 0 1 3036 1951)">Requires Xcode 12 or greater</text>
  <text style="stroke:none;fill:black;font-family:-apple-system,&quot;SF Pro Display&quot;,&quot;SF Pro Text&quot;,Helvetica,sans-serif;text-anchor:end;" transform="matrix(1 0 0 1 3036 1969)">Generated from phone.bubble.left.fill</text>
  <text style="stroke:none;fill:black;font-family:-apple-system,&quot;SF Pro Display&quot;,&quot;SF Pro Text&quot;,Helvetica,sans-serif;text-anchor:end;" transform="matrix(1 0 0 1 3036 1987)">Typeset at 100 points</text>
  <text style="stroke:none;fill:black;font-family:-apple-system,&quot;SF Pro Display&quot;,&quot;SF Pro Text&quot;,Helvetica,sans-serif;" transform="matrix(1 0 0 1 263 726)">Small</text>
  <text style="stroke:none;fill:black;font-family:-apple-system,&quot;SF Pro Display&quot;,&quot;SF Pro Text&quot;,Helvetica,sans-serif;" transform="matrix(1 0 0 1 263 1156)">Medium</text>
  <text style="stroke:none;fill:black;font-family:-apple-system,&quot;SF Pro Display&quot;,&quot;SF Pro Text&quot;,Helvetica,sans-serif;" transform="matrix(1 0 0 1 263 1586)">Large</text>
 </g>
 <g id="Guides">
  <g id="H-reference" style="fill:#27AAE1;stroke:none;" transform="matrix(1 0 0 1 339 696)">
   <path d="M0.976562 0L3.66211 0L12.9883-24.4629L45.752-24.4629L55.127 0L57.7637 0L30.6152-70.459L28.125-70.459ZM29.3457-67.1387L29.4434-67.1387L44.873-26.709L13.8672-26.709Z"/>
  </g>
  <line id="Baseline-S" style="fill:none;stroke:#27AAE1;opacity:1;stroke-width:0.5;" x1="263" x2="3036" y1="696" y2="696"/>
  <line id="Capline-S" style="fill:none;stroke:#27AAE1;opacity:1;stroke-width:0.5;" x1="263" x2="3036" y1="625.541" y2="625.541"/>
  <g id="H-reference" style="fill:#27AAE1;stroke:none;" transform="matrix(1 0 0 1 339 1126)">
   <path d="M0.976562 0L3.66211 0L12.9883-24.4629L45.752-24.4629L55.127 0L57.7637 0L30.6152-70.459L28.125-70.459ZM29.3457-67.1387L29.4434-67.1387L44.873-26.709L13.8672-26.709Z"/>
  </g>
  <line id="Baseline-M" style="fill:none;stroke:#27AAE1;opacity:1;stroke-width:0.5;" x1="263" x2="3036" y1="1126" y2="1126"/>
  <line id="Capline-M" style="fill:none;stroke:#27AAE1;opacity:1;stroke-width:0.5;" x1="263" x2="3036" y1="1055.54" y2="1055.54"/>
  <g id="H-reference" style="fill:#27AAE1;stroke:none;" transform="matrix(1 0 0 1 339 1556)">
   <path d="M0.976562 0L3.66211 0L12.9883-24.4629L45.752-24.4629L55.127 0L57.7637 0L30.6152-70.459L28.125-70.459ZM29.3457-67.1387L29.4434-67.1387L44.873-26.709L13.8672-26.709Z"/>
  </g>
  <line id="Baseline-L" style="fill:none;stroke:#27AAE1;opacity:1;stroke-width:0.5;" x1="263" x2="3036" y1="1556" y2="1556"/>
  <line id="Capline-L" style="fill:none;stroke:#27AAE1;opacity:1;stroke-width:0.5;" x1="263" x2="3036" y1="1485.54" y2="1485.54"/>
  <line id="left-margin" style="fill:none;stroke:#00AEEF;stroke-width:0.5;opacity:1.0;" x1="1383.58" x2="1383.58" y1="1030.79" y2="1150.12"/>
  <line id="right-margin" style="fill:none;stroke:#00AEEF;stroke-width:0.5;opacity:1.0;" x1="1516.1" x2="1516.1" y1="1030.79" y2="1150.12"/>
 </g>
 <g id="Symbols">
  <g id="Black-L" transform="matrix(1 0 0 1 2846.24 1556)">
   <path d="M55.1758 39.0625C58.3496 39.0625 60.9863 37.8418 64.8926 34.375L89.4043 12.8418L125.83 12.8418C145.703 12.8906 158.252 0.195312 158.252-19.5801L158.252-70.1172C158.252-89.8926 145.703-102.539 125.83-102.539L48.4863-102.539C28.6133-102.539 16.0645-89.8926 16.0645-70.1172L16.0645-19.5801C16.0645 0.195312 29.7852 12.8418 46.7285 12.8418L47.6562 12.8418L47.6562 30.8105C47.6562 35.9375 50.5371 39.0625 55.1758 39.0625ZM71.9727-29.5898C56.5918-44.9707 47.0215-63.916 58.3984-75.293C58.6914-75.5371 58.9355-75.7812 59.2773-76.0742C64.0625-79.6387 67.8711-79.6387 70.5078-75.9766L78.3203-64.8438C81.25-60.5957 80.3711-58.5938 77.5391-55.5664L75.0977-52.9297C74.2188-52.0508 74.6094-50.7812 75-50.1953C76.2695-47.998 79.5898-43.9941 83.0078-40.625C86.4746-37.1094 90.2832-34.082 92.5293-32.6172C93.3594-32.0801 94.6777-31.9824 95.459-32.7148L97.9492-35.1562C100.732-37.8906 103.076-38.8672 107.227-35.9375C110.986-33.3008 114.6-30.7129 118.359-28.125C122.51-25.1953 121.289-20.752 118.945-17.5293C118.604-16.9922 118.164-16.4551 117.676-15.918C106.396-4.6875 87.4023-14.1113 71.9727-29.5898Z"/>
  </g>
  <g id="Heavy-L" transform="matrix(1 0 0 1 2550.07 1556)">
   <path d="M54.4434 37.6953C57.4219 37.6953 59.8145 36.5234 63.3789 33.3008L87.5 12.0117L125.879 12.0117C145.264 12.0605 157.178-0.0488281 157.178-19.2383L157.178-69.6289C157.178-88.8184 145.264-100.879 125.879-100.879L47.3145-100.879C27.9785-100.879 16.0645-88.8672 16.0645-69.6289L16.0645-19.2383C16.0645 0 28.8574 12.0117 45.9961 12.0117L47.5586 12.0117L47.5586 30.0781C47.5586 34.7656 50.1465 37.6953 54.4434 37.6953ZM71.1914-29.1504C55.9082-44.4336 46.3379-63.5254 57.666-74.9512C57.959-75.1953 58.2031-75.4395 58.5938-75.7324C63.1836-79.1016 67.0898-79.4434 69.7266-75.7324L77.6367-64.502C80.4199-60.4492 79.6875-58.3008 76.8066-55.2246L74.3164-52.5879C73.4375-51.709 73.8281-50.4883 74.2188-49.8535C75.4883-47.6562 78.7598-43.6523 82.2266-40.1855C85.791-36.6699 89.5996-33.6426 91.8457-32.1777C92.6758-31.6406 93.9941-31.543 94.7754-32.2754L97.2656-34.7656C100.146-37.5977 102.539-38.3789 106.543-35.5957C110.938-32.5195 114.355-30.0781 117.822-27.6855C121.826-24.7559 120.703-20.3613 118.164-17.0898C117.822-16.5527 117.432-16.1133 116.992-15.5762C105.615-4.29688 86.5234-13.8184 71.1914-29.1504Z"/>
  </g>
  <g id="Bold-L" transform="matrix(1 0 0 1 2253.97 1556)">
   <path d="M53.6621 36.1816C56.3477 36.1816 58.4473 35.0098 61.6699 32.0801L85.3027 11.0352L125.977 11.084C144.727 11.1328 155.957-0.292969 155.957-18.8965L155.957-69.043C155.957-87.6465 144.727-99.0234 125.977-99.0234L46.0449-99.0234C27.2461-99.0234 16.0645-87.6953 16.0645-69.043L16.0645-18.8965C16.0645-0.244141 27.832 11.0352 45.166 11.0352L47.4121 11.0352L47.4121 29.1992C47.4121 33.4961 49.7559 36.1816 53.6621 36.1816ZM70.3613-28.7109C55.1758-43.8477 45.5078-63.0859 56.9336-74.5605C57.1777-74.8047 57.4219-75.0488 57.8125-75.293C62.2559-78.5645 66.1621-79.248 68.8477-75.4395L76.8555-64.1113C79.541-60.2539 78.9062-58.0078 75.9766-54.8828L73.4863-52.1973C72.6562-51.3184 72.9492-50.1465 73.3398-49.4629C74.6094-47.2656 77.832-43.3105 81.3477-39.7461C85.0098-36.1328 88.8184-33.1055 91.0645-31.6895C91.9434-31.2012 93.2129-31.1035 93.9941-31.8359L96.5332-34.3262C99.4141-37.207 101.904-37.8906 105.762-35.2051C110.889-31.5918 114.111-29.3457 117.236-27.1484C121.045-24.2676 120.068-19.9219 117.285-16.5527C116.992-16.1133 116.65-15.6738 116.211-15.2344C104.785-3.85742 85.5469-13.4766 70.3613-28.7109Z"/>
  </g>
  <g id="Semibold-L" transform="matrix(1 0 0 1 1957.7 1556)">
   <path d="M53.0762 35.1074C55.6152 35.1074 57.5195 33.9355 60.4492 31.25L83.8379 10.4004L126.025 10.4492C144.385 10.498 155.078-0.439453 155.078-18.6035L155.078-68.6523C155.078-86.8164 144.385-97.7539 126.025-97.7539L45.166-97.7539C26.7578-97.7539 16.0645-86.8652 16.0645-68.6523L16.0645-18.6035C16.0645-0.390625 27.1484 10.4004 44.5801 10.4004L47.3633 10.4004L47.3633 28.6133C47.3633 32.5684 49.5117 35.1074 53.0762 35.1074ZM69.7266-28.3691C54.6387-43.457 44.9219-62.793 56.3965-74.2676C56.6406-74.5117 56.8848-74.7559 57.2754-75.0488C61.5723-78.125 65.5762-79.0527 68.2617-75.2441L76.2695-63.8672C78.9062-60.1074 78.3691-57.8125 75.4395-54.6387L72.9004-51.9043C72.0703-51.0254 72.3145-49.9023 72.7539-49.2188C74.0234-47.0215 77.1973-43.0176 80.7617-39.4043C84.4727-35.7422 88.2812-32.7637 90.5273-31.3965C91.4551-30.8594 92.6758-30.7617 93.457-31.4941L95.9961-34.0332C98.9746-36.9629 101.465-37.5488 105.225-34.9609C110.889-31.0059 113.916-28.8574 116.846-26.8066C120.508-23.9258 119.629-19.6289 116.699-16.2109C116.406-15.8203 116.064-15.3809 115.674-14.9414C104.199-3.56445 84.8633-13.2324 69.7266-28.3691Z"/>
  </g>
  <g id="Medium-L" transform="matrix(1 0 0 1 1661.3 1556)">
   <path d="M52.6855 34.3262C55.0293 34.3262 56.7871 33.1543 59.5703 30.6152L82.7148 9.91211L126.025 9.96094C144.092 10.0098 154.443-0.585938 154.443-18.457L154.443-68.3594C154.443-86.2305 144.092-96.7773 126.025-96.7773L44.4824-96.7773C26.3672-96.7773 16.0645-86.2793 16.0645-68.3594L16.0645-18.457C16.0645-0.537109 26.6113 9.91211 44.1406 9.91211L47.2656 9.91211L47.2656 28.1738C47.2656 31.8848 49.3164 34.3262 52.6855 34.3262ZM69.2871-28.125C54.248-43.1152 44.5312-62.5488 56.0059-74.0723C56.25-74.3164 56.4941-74.5605 56.8848-74.8047C61.084-77.832 65.0879-78.9551 67.8223-75.0488L75.8789-63.6719C78.4668-60.0098 77.9785-57.6172 75-54.4434L72.4609-51.709C71.6309-50.8301 71.875-49.7559 72.3145-49.0234C73.5352-46.8262 76.709-42.8223 80.3223-39.1602C84.0332-35.4492 87.8906-32.4707 90.1367-31.1035C91.0645-30.6152 92.2852-30.5176 93.0176-31.25L95.6055-33.7891C98.584-36.7676 101.172-37.2559 104.834-34.7168C110.84-30.5176 113.77-28.5156 116.504-26.5137C120.117-23.6816 119.287-19.4336 116.26-15.9668C115.918-15.5762 115.674-15.1855 115.234-14.7461C103.76-3.32031 84.3262-13.0371 69.2871-28.125Z"/>
  </g>
  <g id="Regular-L" transform="matrix(1 0 0 1 1365.01 1556)">
   <path d="M52.1484 33.252C54.2969 33.252 55.9082 32.1289 58.3984 29.834L81.2012 9.27734L126.074 9.32617C143.75 9.375 153.613-0.78125 153.613-18.1641L153.613-67.9688C153.613-85.4004 143.75-95.5078 126.074-95.5078L43.6035-95.5078C25.8789-95.5078 16.0645-85.4492 16.0645-67.9688L16.0645-18.1641C16.0645-0.683594 25.8789 9.27734 43.6035 9.27734L47.2168 9.27734L47.2168 27.5879C47.2168 31.0059 49.0234 33.252 52.1484 33.252ZM68.7012-27.832C53.7109-42.7246 43.9453-62.2559 55.4688-73.7793C55.7129-74.0234 55.957-74.3164 56.3477-74.5605C60.4004-77.4414 64.502-78.8086 67.2363-74.8535L75.3418-63.3789C77.832-59.8633 77.4414-57.4219 74.4629-54.1992L71.875-51.416C71.0449-50.5371 71.2891-49.5117 71.7285-48.7305C72.9492-46.5332 76.0742-42.5781 79.7363-38.8672C83.4961-35.1074 87.4023-32.1289 89.5996-30.8105C90.5273-30.2734 91.7969-30.2246 92.4805-30.9082L95.1172-33.4961C98.1445-36.5234 100.732-36.9141 104.297-34.4727C110.791-29.9316 113.574-28.0273 116.113-26.1719C119.58-23.3398 118.848-19.1406 115.674-15.625C115.332-15.2832 115.088-14.8926 114.697-14.502C103.174-3.02734 83.6426-12.8418 68.7012-27.832Z"/>
  </g>
  <g id="Light-L" transform="matrix(1 0 0 1 1069.2 1556)">
   <path d="M50.293 31.7871C52.0508 31.7871 53.3691 30.8105 55.2734 29.1016L78.125 8.93555L126.074 8.98438C142.334 9.0332 151.807-0.683594 151.807-16.6992L151.807-68.6035C151.807-84.6191 142.334-94.2871 126.074-94.2871L41.7969-94.2871C25.5371-94.2871 16.0645-84.7168 16.0645-68.6035L16.0645-16.6992C16.0645-0.585938 25.5371 8.93555 41.7969 8.93555L46.2891 8.93555L46.2891 27.2461C46.2891 29.9805 47.8516 31.7871 50.293 31.7871ZM67.2852-27.1973C52.5879-41.8457 42.627-61.6699 54.1992-73.291C54.4434-73.5352 54.6875-73.8281 55.127-74.0723C58.7402-76.5625 62.9883-78.7598 65.8203-74.6582L74.0723-62.9395C76.3184-59.8145 76.2207-57.1777 73.0957-53.8086L70.459-50.9277C69.7266-50.1465 69.8242-49.1699 70.3125-48.3398C71.4355-46.1914 74.4629-42.1387 78.3203-38.2812C82.2266-34.375 86.2305-31.4941 88.4277-30.1758C89.3555-29.6387 90.5273-29.6387 91.2598-30.3711L93.9453-33.0078C97.1191-36.1328 99.8047-36.2305 103.027-34.0332C111.23-28.3691 113.428-26.9043 115.234-25.4883C118.359-22.7539 117.725-18.75 114.16-14.9902C113.916-14.7461 113.77-14.4531 113.428-14.1113C101.807-2.53906 81.9336-12.5 67.2852-27.1973Z"/>
  </g>
  <g id="Thin-L" transform="matrix(1 0 0 1 773.683 1556)">
   <path d="M47.8516 29.834C49.0234 29.834 50 29.1016 51.123 28.1738L74.0234 8.49609L126.074 8.54492C140.43 8.54492 149.414-0.634766 149.414-14.7949L149.414-69.3848C149.414-83.5449 140.43-92.7246 126.074-92.7246L39.3555-92.7246C25.0488-92.7246 16.0645-83.6914 16.0645-69.3848L16.0645-14.7949C16.0645-0.488281 25.0488 8.49609 39.3555 8.49609L45.0684 8.49609L45.0684 26.709C45.0684 28.6133 46.2402 29.834 47.8516 29.834ZM65.3809-26.416C51.0254-40.7227 40.8691-60.9375 52.5879-72.6562C52.832-72.9004 53.0762-73.2422 53.4668-73.4863C56.5918-75.3906 60.9375-78.6621 63.9648-74.3652L72.3633-62.3535C74.2188-59.7168 74.5605-56.8848 71.3379-53.3203L68.6523-50.293C67.9688-49.5605 67.9199-48.7305 68.4082-47.8027C69.4824-45.7031 72.4121-41.5527 76.4648-37.5C80.5176-33.4473 84.7168-30.6152 86.8164-29.3945C87.793-28.8086 88.8672-28.8574 89.5996-29.5898L92.3828-32.3242C95.752-35.5957 98.6328-35.3516 101.318-33.4961C111.768-26.3184 113.232-25.4395 114.111-24.5605C116.699-21.875 116.211-18.2617 112.158-14.1602C112.012-14.0137 111.963-13.8672 111.719-13.623C99.9023-1.85547 79.6387-12.1094 65.3809-26.416Z"/>
  </g>
  <g id="Ultralight-L" transform="matrix(1 0 0 1 477.607 1556)">
   <path d="M46.582 28.8086C47.5098 28.8086 48.291 28.2227 48.9746 27.7344L71.9238 8.30078L126.074 8.30078C139.453 8.30078 148.145-0.585938 148.145-13.8184L148.145-69.8242C148.145-83.0078 139.453-91.8945 126.074-91.8945L38.1348-91.8945C24.8047-91.8945 16.0645-83.2031 16.0645-69.8242L16.0645-13.8184C16.0645-0.439453 24.8047 8.30078 38.1348 8.30078L44.4824 8.30078L44.4824 26.4648C44.4824 27.9297 45.4102 28.8086 46.582 28.8086ZM64.3555-25.9766C50.2441-40.1367 39.9902-60.5957 51.7578-72.3633C52.002-72.6074 52.2461-72.9004 52.6367-73.1445C55.4688-74.8047 59.9121-78.6133 63.0371-74.2188L71.5332-62.0605C73.1934-59.7168 73.6816-56.7383 70.459-53.0762L67.6758-50C67.0898-49.2676 66.9434-48.4863 67.4316-47.5098C68.457-45.459 71.3379-41.2598 75.4883-37.1094C79.6387-32.959 83.9355-30.127 85.9863-28.9551C86.9629-28.3691 87.9883-28.4668 88.7207-29.1992L91.5527-31.9824C95.0684-35.3027 97.998-34.8633 100.439-33.2031C112.012-25.293 113.135-24.707 113.525-24.1211C115.82-21.4844 115.479-18.0176 111.182-13.7695C111.035-13.623 111.035-13.5742 110.84-13.3301C98.9746-1.46484 78.418-11.9141 64.3555-25.9766Z"/>
  </g>
  <g id="Black-M" transform="matrix(1 0 0 1 2865.58 1126)">
   <path d="M42.7246 23.3887C45.3125 23.3887 47.5586 22.5586 50.6836 19.7754L70.2637 2.97852L97.4609 2.97852C112.793 2.97852 123.193-7.42188 123.193-22.7539L123.193-63.2812C123.193-78.6133 112.793-89.0137 97.4609-89.0137L38.1836-89.0137C22.8516-89.0137 12.4512-78.6133 12.4512-63.2812L12.4512-22.7539C12.4512-7.42188 24.1211 2.97852 36.2793 2.97852L36.6211 2.97852L36.6211 16.7969C36.6211 20.8984 38.9648 23.3887 42.7246 23.3887ZM56.0547-31.1035C44.1406-43.0176 36.7188-57.7148 45.5078-66.5039C45.752-66.6992 45.9473-66.8945 46.1914-67.1387C49.9512-69.873 52.8809-69.873 54.9316-67.0898L60.9863-58.3984C63.2324-55.0781 62.5488-53.6133 60.3516-51.2207L58.4961-49.1699C57.8125-48.4863 58.1055-47.5098 58.4473-47.0703C59.375-45.3613 61.9629-42.2363 64.5996-39.6484C67.2852-36.9629 70.2637-34.6191 72.0215-33.4961C72.6562-33.0566 73.6328-32.959 74.2676-33.5449L76.1719-35.4004C78.3691-37.5 80.1758-38.2812 83.3496-36.0352C86.2793-33.9844 89.0625-31.9824 92.041-29.9805C95.2148-27.6855 94.1895-24.3164 92.4316-21.7773C92.1875-21.3379 91.8457-20.9473 91.4551-20.5078C82.7148-11.7676 68.0176-19.1406 56.0547-31.1035Z"/>
  </g>
  <g id="Heavy-M" transform="matrix(1 0 0 1 2569.23 1126)">
   <path d="M42.4316 22.3145C44.873 22.3145 46.875 21.3867 49.8047 18.7988L68.9453 2.14844L97.5098 2.14844C112.646 2.14844 122.461-7.71484 122.461-22.8027L122.461-62.5488C122.461-77.6367 112.646-87.5 97.5098-87.5L37.4023-87.5C22.2656-87.5 12.4512-77.6367 12.4512-62.5488L12.4512-22.8027C12.4512-7.71484 23.2422 2.14844 35.9375 2.14844L36.7188 2.14844L36.7188 16.0645C36.7188 19.9219 38.916 22.3145 42.4316 22.3145ZM55.5664-30.8105C43.7012-42.6758 36.2793-57.4219 45.0684-66.2598C45.3125-66.4062 45.5078-66.6016 45.752-66.8457C49.4141-69.5312 52.3926-69.6777 54.4434-66.8457L60.5469-58.1543C62.7441-54.9316 62.1094-53.3691 59.9121-50.9766L58.0078-48.9258C57.3242-48.2422 57.6172-47.2656 57.959-46.7773C58.8867-45.1172 61.4746-41.9922 64.1113-39.3555C66.8457-36.6211 69.8242-34.2773 71.582-33.1543C72.2168-32.7148 73.1934-32.666 73.8281-33.2031L75.7812-35.1074C77.9785-37.2559 79.7852-37.9395 82.9102-35.7422C86.1328-33.4961 88.8672-31.5918 91.6504-29.6387C94.7754-27.3926 93.8477-23.9746 91.9922-21.4355C91.748-21.0449 91.4062-20.6543 91.0156-20.2637C82.2754-11.4746 67.4805-18.8965 55.5664-30.8105Z"/>
  </g>
  <g id="Bold-M" transform="matrix(1 0 0 1 2272.94 1126)">
   <path d="M42.0898 21.0449C44.3359 21.0449 46.1426 20.1172 48.877 17.6758L67.4805 1.2207L97.5586 1.2207C112.5 1.26953 121.631-8.00781 121.631-22.8027L121.631-61.7676C121.631-76.5625 112.5-85.791 97.5586-85.791L36.4746-85.791C21.582-85.791 12.4512-76.6113 12.4512-61.7676L12.4512-22.8027C12.4512-7.95898 22.2168 1.2207 35.5469 1.2207L36.8652 1.2207L36.8652 15.2344C36.8652 18.7988 38.8184 21.0449 42.0898 21.0449ZM55.0781-30.4688C43.2129-42.2852 35.791-57.0801 44.5801-65.9668C44.8242-66.1133 45.0195-66.3086 45.3125-66.5527C48.8281-69.1406 51.8555-69.4824 53.9062-66.5527L60.0586-57.8613C62.207-54.7363 61.6211-53.0762 59.4238-50.6836L57.4707-48.6328C56.8359-47.9004 57.0801-46.9727 57.4219-46.4844C58.3984-44.7754 60.8887-41.6992 63.623-39.0137C66.3574-36.2305 69.3359-33.8867 71.0938-32.8125C71.7285-32.373 72.7539-32.3242 73.3398-32.8613L75.293-34.8145C77.4902-37.0117 79.3945-37.5977 82.4707-35.4492C85.9863-33.0078 88.5742-31.1035 91.2598-29.2969C94.2871-27.0508 93.457-23.6328 91.4551-21.0938C91.2109-20.7031 90.918-20.3613 90.5273-19.9707C81.7383-11.1816 66.9434-18.6035 55.0781-30.4688Z"/>
  </g>
  <g id="Semibold-M" transform="matrix(1 0 0 1 1976.52 1126)">
   <path d="M41.8457 20.2148C43.9941 20.2148 45.6543 19.2383 48.1934 16.9434L66.4551 0.585938L97.6074 0.585938C112.402 0.634766 121.045-8.20312 121.045-22.8027L121.045-61.2305C121.045-75.8301 112.402-84.668 97.6074-84.668L35.8887-84.668C21.0938-84.668 12.4512-75.8789 12.4512-61.2305L12.4512-22.8027C12.4512-8.1543 21.4844 0.585938 35.2539 0.585938L36.9141 0.585938L36.9141 14.6973C36.9141 18.0664 38.7695 20.2148 41.8457 20.2148ZM54.6875-30.2246C42.8711-41.9922 35.4492-56.8848 44.2871-65.7227C44.4824-65.918 44.6777-66.1133 44.9707-66.3086C48.4375-68.8965 51.4648-69.2871 53.5645-66.4062L59.7168-57.666C61.8652-54.5898 61.3281-52.8809 59.0332-50.4883L57.1289-48.4375C56.4453-47.7051 56.7383-46.8262 57.0312-46.2891C58.0078-44.5801 60.498-41.5039 63.2324-38.7695C66.0156-35.9863 68.9941-33.6426 70.752-32.5684C71.3867-32.1777 72.4121-32.0801 72.998-32.6172L74.9512-34.5703C77.1973-36.8164 79.1016-37.3535 82.1289-35.2539C85.8398-32.6172 88.4277-30.8105 90.9668-29.0527C93.9941-26.8066 93.2129-23.3887 91.1133-20.8496C90.8691-20.459 90.5762-20.1172 90.2344-19.7266C81.3965-10.9375 66.5039-18.3594 54.6875-30.2246Z"/>
  </g>
  <g id="Medium-M" transform="matrix(1 0 0 1 1680.03 1126)">
   <path d="M41.6992 19.5312C43.75 19.5312 45.2637 18.5547 47.7051 16.3574L65.7227 0.0976562L97.6562 0.146484C112.354 0.146484 120.605-8.34961 120.605-22.8516L120.605-60.791C120.605-75.293 112.354-83.7891 97.6562-83.7891L35.4004-83.7891C20.752-83.7891 12.4512-75.293 12.4512-60.791L12.4512-22.8516C12.4512-8.30078 20.9961 0.0976562 35.0586 0.0976562L37.0117 0.0976562L37.0117 14.2578C37.0117 17.4805 38.7207 19.5312 41.6992 19.5312ZM54.4434-30.0781C42.627-41.7969 35.1562-56.6895 43.9941-65.5762C44.1895-65.7715 44.3848-65.9668 44.6777-66.1621C48.1445-68.7012 51.2207-69.1895 53.2715-66.2598L59.4238-57.5195C61.5723-54.4922 61.084-52.7344 58.7891-50.3418L56.8359-48.2422C56.2012-47.5586 56.4453-46.6797 56.7383-46.1426C57.7637-44.4336 60.2051-41.3574 62.9883-38.623C65.7715-35.791 68.7012-33.4473 70.459-32.373C71.1426-31.9824 72.168-31.8848 72.7539-32.4707L74.707-34.4238C76.9531-36.6699 78.8574-37.1582 81.8848-35.1074C85.7422-32.373 88.2812-30.5664 90.7227-28.8574C93.75-26.6113 93.0176-23.1934 90.8203-20.6543C90.5762-20.3125 90.2832-19.9707 89.9414-19.5801C81.1035-10.791 66.2109-18.2129 54.4434-30.0781Z"/>
  </g>
  <g id="Regular-M" transform="matrix(1 0 0 1 1383.58 1126)">
   <path d="M41.4551 18.7012C43.3594 18.7012 44.7754 17.7246 47.0703 15.5762L64.6973-0.537109L97.7051-0.488281C112.256-0.439453 120.068-8.54492 120.068-22.8516L120.068-60.2539C120.068-74.5605 112.256-82.6172 97.7051-82.6172L34.8145-82.6172C20.2637-82.6172 12.4512-74.6094 12.4512-60.2539L12.4512-22.8516C12.4512-8.49609 20.2637-0.537109 34.8145-0.537109L37.1094-0.537109L37.1094 13.6719C37.1094 16.6992 38.6719 18.7012 41.4551 18.7012ZM54.0527-29.834C42.2852-41.5527 34.8145-56.4941 43.7012-65.3809C43.8477-65.5762 44.043-65.7715 44.3848-65.9668C47.7539-68.457 50.8301-69.043 52.9297-66.0645L59.1309-57.3242C61.2305-54.3457 60.7422-52.5391 58.4473-50.1465L56.4941-48.0469C55.8105-47.3633 56.0547-46.4844 56.3965-45.9473C57.373-44.2383 59.8145-41.1621 62.5977-38.3789C65.4785-35.5469 68.3594-33.2031 70.1172-32.1289C70.8496-31.7383 71.8262-31.6406 72.4121-32.2266L74.3652-34.1797C76.6113-36.4746 78.5645-36.9629 81.543-34.8633C85.6445-31.9824 88.0859-30.2734 90.4785-28.6133C93.4082-26.3672 92.7734-22.9492 90.4785-20.4102C90.2344-20.0684 89.9902-19.7266 89.6484-19.3848C80.7617-10.5957 65.8203-18.0176 54.0527-29.834Z"/>
  </g>
  <g id="Light-M" transform="matrix(1 0 0 1 1087.68 1126)">
   <path d="M39.7949 17.3828C41.3574 17.3828 42.4805 16.5527 44.2383 14.9414L61.9141-0.830078L97.7051-0.830078C110.938-0.78125 118.457-8.49609 118.457-21.5332L118.457-60.791C118.457-73.877 110.938-81.543 97.7051-81.543L33.2031-81.543C19.9707-81.543 12.4512-73.9258 12.4512-60.791L12.4512-21.5332C12.4512-8.44727 19.9707-0.830078 33.2031-0.830078L36.2793-0.830078L36.2793 13.3301C36.2793 15.7715 37.5977 17.3828 39.7949 17.3828ZM52.7832-29.2969C41.2598-40.7715 33.6426-56.0059 42.5781-64.9414C42.7734-65.1367 42.9199-65.3809 43.2617-65.5273C46.2891-67.6758 49.4629-68.9941 51.6602-65.8691L57.959-56.9336C59.8145-54.2969 59.6191-52.3438 57.2754-49.8047L55.2246-47.6074C54.6387-46.9727 54.7852-46.1914 55.127-45.5566C56.0547-43.8965 58.3984-40.7715 61.3281-37.8418C64.3066-34.9121 67.334-32.6172 69.043-31.5918C69.7754-31.2012 70.7031-31.1523 71.2891-31.6895L73.3398-33.7402C75.7324-36.084 77.7832-36.3281 80.4199-34.5215C85.9863-30.6152 87.9883-29.2969 89.6973-27.9785C92.2852-25.8301 91.748-22.6074 89.1602-19.8242C88.916-19.5801 88.7695-19.3359 88.4766-19.043C79.4922-10.1074 64.2578-17.7734 52.7832-29.2969Z"/>
  </g>
  <g id="Thin-M" transform="matrix(1 0 0 1 792.042 1126)">
   <path d="M37.5977 15.625C38.6719 15.625 39.502 14.9902 40.5273 14.1113L58.252-1.2207L97.7051-1.2207C109.229-1.2207 116.309-8.44727 116.309-19.8242L116.309-61.5234C116.309-72.9004 109.229-80.127 97.7051-80.127L31.0547-80.127C19.5312-80.127 12.4512-72.998 12.4512-61.5234L12.4512-19.8242C12.4512-8.34961 19.5312-1.2207 31.0547-1.2207L35.2051-1.2207L35.2051 12.8906C35.2051 14.5508 36.1816 15.625 37.5977 15.625ZM51.0742-28.5645C39.8926-39.7461 32.0312-55.3223 41.1133-64.4043C41.3086-64.5508 41.4551-64.7949 41.7969-64.9902C44.3359-66.6016 47.6562-68.8965 50-65.625L56.4453-56.3965C57.959-54.248 58.1055-52.0996 55.6641-49.3652L53.5645-47.0703C53.0762-46.4844 53.0762-45.8008 53.418-45.0684C54.248-43.457 56.543-40.2344 59.668-37.1582C62.7441-34.0332 65.9668-31.8359 67.627-30.8594C68.3594-30.4199 69.2383-30.4688 69.7754-31.0547L71.9238-33.1055C74.5117-35.5957 76.709-35.498 78.9062-33.9844C86.4746-28.7598 87.793-27.9785 88.6719-27.1484C90.7715-25.0977 90.3809-22.168 87.3535-19.0918C87.207-18.9453 87.1582-18.7988 86.9141-18.6035C77.832-9.52148 62.207-17.4316 51.0742-28.5645Z"/>
  </g>
  <g id="Ultralight-M" transform="matrix(1 0 0 1 495.893 1126)">
   <path d="M36.4746 14.6973C37.2559 14.6973 37.9395 14.209 38.5742 13.6719L56.3477-1.41602L97.7051-1.41602C108.35-1.41602 115.186-8.39844 115.186-18.9453L115.186-61.9141C115.186-72.4121 108.35-79.3945 97.7051-79.3945L29.9316-79.3945C19.2871-79.3945 12.4512-72.5586 12.4512-61.9141L12.4512-18.9453C12.4512-8.25195 19.2871-1.41602 29.9316-1.41602L34.668-1.41602L34.668 12.6465C34.668 13.916 35.4492 14.6973 36.4746 14.6973ZM50.1953-28.1738C39.1602-39.209 31.25-54.9805 40.332-64.1113C40.5273-64.2578 40.7227-64.5508 41.0156-64.6973C43.3105-66.0645 46.7285-68.8477 49.1211-65.4785L55.6641-56.1035C57.0312-54.1992 57.373-51.9531 54.8828-49.1211L52.7344-46.7773C52.2461-46.1914 52.1973-45.6055 52.5391-44.8242C53.3691-43.2129 55.6152-39.9902 58.7891-36.7676C61.9629-33.5938 65.2832-31.4453 66.8945-30.5176C67.627-30.0781 68.457-30.127 68.9941-30.6641L71.1914-32.8125C73.877-35.3516 76.123-35.1074 78.125-33.7402C86.7188-27.832 87.6953-27.2949 88.1836-26.7578C90.0391-24.707 89.6973-21.9727 86.4746-18.7012C86.3281-18.6035 86.3281-18.5547 86.1328-18.3594C77.002-9.17969 61.1328-17.2363 50.1953-28.1738Z"/>
  </g>
  <g id="Black-S" transform="matrix(1 0 0 1 2880.28 696)">
   <path d="M33.4961 10.6445C35.498 10.6445 37.2559 9.96094 39.6973 7.8125L54.9805-5.37109L76.3672-5.37109C88.3789-5.37109 96.4844-13.4766 96.4844-25.4883L96.4844-57.1289C96.4844-69.1406 88.3789-77.2461 76.3672-77.2461L29.8828-77.2461C17.8711-77.2461 9.76562-69.1406 9.76562-57.1289L9.76562-25.4883C9.76562-13.4766 18.8477-5.37109 28.418-5.37109L28.7109-5.37109L28.7109 5.46875C28.7109 8.69141 30.5664 10.6445 33.4961 10.6445ZM43.8965-31.9824C34.5703-41.3086 28.7598-52.832 35.6445-59.7168C35.8398-59.8633 35.9863-60.0098 36.1816-60.2051C39.1113-62.3535 41.4062-62.3535 43.0176-60.1562L47.7539-53.3691C49.5117-50.7812 48.9746-49.6094 47.2656-47.7539L45.8008-46.1426C45.2637-45.6055 45.5078-44.8242 45.752-44.4824C46.4844-43.1641 48.5352-40.7227 50.5859-38.6719C52.6855-36.5723 55.0293-34.7168 56.3965-33.8379C56.8848-33.4961 57.666-33.4473 58.1543-33.8867L59.668-35.3516C61.377-37.0117 62.793-37.5977 65.2832-35.8398C67.5781-34.2285 69.7754-32.666 72.0703-31.1035C74.5605-29.2969 73.7793-26.6602 72.4121-24.6582C72.2168-24.3164 71.9238-24.0234 71.6309-23.6816C64.7949-16.8457 53.2715-22.6074 43.8965-31.9824Z"/>
  </g>
  <g id="Heavy-S" transform="matrix(1 0 0 1 2583.76 696)">
   <path d="M33.4473 9.96094C35.4004 9.96094 37.0117 9.22852 39.3555 7.12891L54.2969-5.95703L76.416-5.95703C88.4277-5.95703 96.0938-13.6719 96.0938-25.6348L96.0938-56.543C96.0938-68.5059 88.4277-76.2207 76.416-76.2207L29.4434-76.2207C17.4316-76.2207 9.76562-68.5059 9.76562-56.543L9.76562-25.6348C9.76562-13.6719 18.2129-5.95703 28.3203-5.95703L28.9062-5.95703L28.9062 4.93164C28.9062 8.05664 30.6152 9.96094 33.4473 9.96094ZM43.6523-31.8359C34.3262-41.1133 28.5156-52.6855 35.4004-59.5703C35.5957-59.7168 35.7422-59.8633 35.9375-60.0586C38.8672-62.207 41.1621-62.207 42.7734-60.0098L47.5098-53.2227C49.2676-50.6348 48.7793-49.4629 47.0215-47.6074L45.5566-45.9961C45.0195-45.459 45.2637-44.6777 45.5078-44.3359C46.2891-42.9688 48.291-40.5762 50.3418-38.5254C52.4902-36.377 54.7852-34.5215 56.1523-33.6426C56.6895-33.3496 57.4707-33.252 57.9102-33.6914L59.4727-35.2051C61.1328-36.8652 62.5977-37.4023 65.0879-35.6934C67.4316-34.0332 69.5801-32.4707 71.875-30.9082C74.3652-29.1504 73.6328-26.4648 72.2168-24.4629C71.9727-24.1699 71.7285-23.8281 71.4355-23.5352C64.5508-16.6992 53.0273-22.4121 43.6523-31.8359Z"/>
  </g>
  <g id="Bold-S" transform="matrix(1 0 0 1 2287.27 696)">
   <path d="M33.3984 9.13086C35.2539 9.13086 36.7188 8.39844 38.9648 6.34766L53.5156-6.64062L76.4648-6.64062C88.4766-6.5918 95.6543-13.916 95.6543-25.8301L95.6543-55.8594C95.6543-67.7734 88.4766-75.0488 76.4648-75.0488L28.9551-75.0488C16.9434-75.0488 9.76562-67.7734 9.76562-55.8594L9.76562-25.8301C9.76562-13.916 17.4316-6.64062 28.2227-6.64062L29.1016-6.64062L29.1016 4.3457C29.1016 7.32422 30.7129 9.13086 33.3984 9.13086ZM43.4082-31.6406C34.082-40.918 28.3203-52.4902 35.2051-59.375C35.3516-59.5215 35.498-59.668 35.7422-59.8633C38.623-62.0117 40.918-62.0605 42.5293-59.8145L47.3145-53.0273C49.0723-50.4883 48.5352-49.2676 46.8262-47.4121L45.3125-45.8008C44.7754-45.2637 45.0195-44.5312 45.2637-44.1406C46.0449-42.7734 48.0469-40.3809 50.0977-38.3301C52.2461-36.1816 54.541-34.3262 55.9082-33.4473C56.4453-33.1543 57.2266-33.0566 57.7148-33.4961L59.2285-35.0098C60.8887-36.6699 62.3535-37.2559 64.8438-35.498C67.2363-33.7891 69.4336-32.2266 71.6309-30.7129C74.1211-28.9551 73.4375-26.2207 71.9727-24.2676C71.7285-23.9746 71.4844-23.6328 71.1914-23.3398C64.3066-16.5039 52.7832-22.2656 43.4082-31.6406Z"/>
  </g>
  <g id="Semibold-S" transform="matrix(1 0 0 1 1990.7 696)">
   <path d="M33.3496 8.59375C35.1562 8.59375 36.5234 7.8125 38.7207 5.81055L52.9785-7.08008L76.5137-7.08008C88.5254-7.03125 95.3613-14.0625 95.3613-25.9277L95.3613-55.3711C95.3613-67.2852 88.5254-74.2676 76.5137-74.2676L28.6621-74.2676C16.6504-74.2676 9.76562-67.2852 9.76562-55.3711L9.76562-25.9277C9.76562-14.0625 16.9434-7.08008 28.1738-7.08008L29.248-7.08008L29.248 3.95508C29.248 6.78711 30.7617 8.59375 33.3496 8.59375ZM43.2617-31.4941C33.9355-40.7715 28.125-52.3438 35.0098-59.2773C35.2051-59.4238 35.3516-59.5703 35.5469-59.7168C38.4277-61.8652 40.7715-61.9629 42.334-59.7168L47.1191-52.9297C48.877-50.3906 48.3887-49.1211 46.6309-47.2656L45.1172-45.7031C44.5801-45.1172 44.8242-44.3848 45.0684-43.9941C45.8496-42.6758 47.8516-40.2832 49.9512-38.1836C52.0996-36.0352 54.3457-34.1797 55.7617-33.3008C56.25-33.0078 57.0801-32.9102 57.5195-33.3496L59.0332-34.8633C60.7422-36.5723 62.207-37.1094 64.6973-35.3516C67.1387-33.6426 69.2871-32.0801 71.4844-30.5664C73.9746-28.8086 73.3398-26.0742 71.7773-24.1211C71.582-23.8281 71.3379-23.5352 71.0449-23.1934C64.1602-16.3574 52.5879-22.1191 43.2617-31.4941Z"/>
  </g>
  <g id="Medium-S" transform="matrix(1 0 0 1 1694.09 696)">
   <path d="M33.3496 8.20312C35.0586 8.20312 36.377 7.37305 38.4766 5.41992L52.5879-7.4707L76.5137-7.42188C88.5254-7.37305 95.166-14.209 95.166-26.0254L95.166-55.0293C95.166-66.8945 88.5254-73.6816 76.5137-73.6816L28.418-73.6816C16.4062-73.6816 9.76562-66.8945 9.76562-55.0293L9.76562-26.0254C9.76562-14.209 16.5527-7.4707 28.125-7.4707L29.3457-7.4707L29.3457 3.66211C29.3457 6.39648 30.8105 8.20312 33.3496 8.20312ZM43.1152-31.3965C33.7891-40.6738 28.0273-52.2461 34.9121-59.1797C35.0586-59.3262 35.2051-59.4727 35.4492-59.6191C38.2812-61.7676 40.625-61.8652 42.2363-59.6191L47.0215-52.832C48.7793-50.3418 48.291-49.0234 46.5332-47.168L45.0195-45.6055C44.4824-45.0195 44.6777-44.2871 44.9707-43.8965C45.752-42.5781 47.7051-40.1855 49.8047-38.0859C51.9531-35.9375 54.1992-34.082 55.6152-33.2031C56.1523-32.9102 56.9824-32.8125 57.4219-33.252L58.9355-34.7656C60.5957-36.4746 62.1094-37.0117 64.5996-35.2539C67.041-33.5449 69.1895-31.9824 71.3867-30.4688C73.877-28.7109 73.2422-25.9277 71.6797-24.0234C71.4355-23.7305 71.1914-23.3887 70.8984-23.0957C64.0137-16.2598 52.4902-22.0215 43.1152-31.3965Z"/>
  </g>
  <g id="Regular-S" transform="matrix(1 0 0 1 1397.53 696)">
   <path d="M33.3008 7.66602C35.0098 7.66602 36.1816 6.78711 38.2324 4.88281L52.0508-7.91016L76.5625-7.86133C88.5742-7.8125 94.873-14.3555 94.873-26.1719L94.873-54.5898C94.873-66.4062 88.5742-72.9004 76.5625-72.9004L28.0762-72.9004C16.0645-72.9004 9.76562-66.4062 9.76562-54.5898L9.76562-26.1719C9.76562-14.3555 16.0645-7.91016 28.0762-7.91016L29.4434-7.91016L29.4434 3.27148C29.4434 5.9082 30.8594 7.66602 33.3008 7.66602ZM42.9688-31.25C33.6426-40.5762 27.832-52.0996 34.7168-59.082C34.8633-59.2285 35.0098-59.375 35.2539-59.5215C38.0859-61.6211 40.4785-61.7676 42.041-59.4727L46.8262-52.7344C48.6328-50.2441 48.0957-48.877 46.3379-47.0703L44.8242-45.5078C44.2871-44.9219 44.5312-44.1895 44.7754-43.7988C45.6055-42.4316 47.5586-40.0879 49.6582-37.9395C51.8066-35.791 54.0527-33.9355 55.4688-33.0566C56.0059-32.7637 56.7871-32.666 57.2266-33.1055L58.7891-34.668C60.4492-36.377 61.9141-36.8652 64.4043-35.1562C66.8945-33.3984 69.0918-31.8359 71.2402-30.3223C73.6816-28.5645 73.1445-25.7812 71.5332-23.877C71.2891-23.584 71.0449-23.291 70.752-22.998C63.8672-16.1621 52.2949-21.875 42.9688-31.25Z"/>
  </g>
  <g id="Light-S" transform="matrix(1 0 0 1 1101.55 696)">
   <path d="M31.8359 6.49414C33.2031 6.49414 34.1797 5.76172 35.7422 4.3457L49.6094-8.1543L76.5625-8.1543C87.4023-8.10547 93.4082-14.3066 93.4082-25L93.4082-55.0781C93.4082-65.7715 87.4023-71.9238 76.5625-71.9238L26.6113-71.9238C15.7715-71.9238 9.76562-65.8203 9.76562-55.0781L9.76562-25C9.76562-14.2578 15.7715-8.1543 26.6113-8.1543L28.7598-8.1543L28.7598 2.97852C28.7598 5.07812 29.8828 6.49414 31.8359 6.49414ZM41.8457-30.7617C32.7148-39.8438 26.8066-51.6602 33.7891-58.6914C33.9355-58.8379 34.082-58.9844 34.3262-59.1309C36.8164-60.9375 39.2578-61.7188 40.918-59.3262L45.8496-52.3926C47.4121-50.1953 47.1191-48.7305 45.3125-46.7773L43.75-45.1172C43.2617-44.5801 43.4082-43.9453 43.6523-43.457C44.4336-42.1387 46.2891-39.7461 48.5352-37.5C50.8301-35.2051 53.125-33.3984 54.4922-32.5684C55.0781-32.2754 55.8105-32.2266 56.25-32.666L57.8613-34.2285C59.668-36.0352 61.2305-36.3281 63.4277-34.8145C67.2363-32.1289 68.9453-30.957 70.5566-29.7852C72.7051-28.0762 72.2656-25.4883 70.3613-23.3887C70.166-23.1445 69.9707-22.9492 69.7754-22.7051C62.7441-15.7227 50.9277-21.6309 41.8457-30.7617Z"/>
  </g>
  <g id="Thin-S" transform="matrix(1 0 0 1 805.763 696)">
   <path d="M29.8828 4.93164C30.8105 4.93164 31.4941 4.44336 32.4707 3.61328L46.3379-8.49609L76.5625-8.49609C85.9375-8.49609 91.5527-14.2578 91.5527-23.4863L91.5527-55.7129C91.5527-64.9414 85.9375-70.6543 76.5625-70.6543L24.7559-70.6543C15.3809-70.6543 9.76562-64.9902 9.76562-55.7129L9.76562-23.4863C9.76562-14.1602 15.3809-8.49609 24.7559-8.49609L27.7832-8.49609L27.7832 2.53906C27.7832 4.00391 28.6133 4.93164 29.8828 4.93164ZM40.332-30.127C31.4941-38.9648 25.4395-51.123 32.4707-58.2031C32.6172-58.3496 32.7637-58.4961 33.0078-58.6426C35.1074-60.0098 37.6953-61.6211 39.502-59.082L44.5312-51.9043C45.8008-50.1465 45.8496-48.4863 43.9453-46.3867L42.2852-44.6289C41.8945-44.1406 41.8945-43.6035 42.1875-43.0664C42.8711-41.748 44.6777-39.2578 47.0703-36.8652C49.4629-34.4727 51.9531-32.7148 53.2715-31.9336C53.8574-31.6406 54.541-31.6406 54.9805-32.0801L56.6406-33.6914C58.5938-35.6445 60.3027-35.5957 62.1094-34.375C67.6758-30.5176 68.8477-29.7852 69.6777-29.0527C71.4355-27.4414 71.0938-25.0977 68.7988-22.7539C68.6523-22.6074 68.6035-22.4609 68.4082-22.2656C61.3281-15.1855 49.1211-21.3379 40.332-30.127Z"/>
  </g>
  <g id="Ultralight-S" transform="matrix(1 0 0 1 509.54 696)">
   <path d="M28.9062 4.15039C29.5898 4.15039 30.127 3.71094 30.7617 3.22266L44.6777-8.69141L76.5625-8.69141C85.1562-8.69141 90.5762-14.209 90.5762-22.7051L90.5762-56.0059C90.5762-64.502 85.1562-70.0195 76.5625-70.0195L23.7793-70.0195C15.1855-70.0195 9.76562-64.5996 9.76562-56.0059L9.76562-22.7051C9.76562-14.1113 15.1855-8.69141 23.7793-8.69141L27.2949-8.69141L27.2949 2.34375C27.2949 3.4668 27.9785 4.15039 28.9062 4.15039ZM39.5508-29.834C30.9082-38.4766 24.707-50.7812 31.8359-57.9102C31.9824-58.0566 32.1289-58.252 32.373-58.3984C34.2285-59.5215 36.9141-61.5723 38.7207-58.9844L43.8477-51.6602C44.9707-50.0977 45.166-48.3887 43.2129-46.1914L41.5527-44.3359C41.1621-43.8965 41.1133-43.4082 41.4062-42.8223C42.041-41.5527 43.8477-39.0137 46.2891-36.5234C48.7793-34.082 51.3672-32.373 52.6367-31.6406C53.2227-31.2988 53.8574-31.2988 54.2969-31.7383L56.0059-33.3984C58.0566-35.4004 59.8145-35.2539 61.4258-34.1309C67.9199-29.6875 68.75-29.1992 69.2383-28.7109C70.752-27.0996 70.5078-24.9023 67.9688-22.4121C67.8711-22.2656 67.8711-22.2168 67.7246-22.0703C60.5469-14.8926 48.1934-21.1914 39.5508-29.834Z"/>
  </g>
 </g>
</svg>
