<?xml version="1.0" encoding="UTF-8"?>
<!--Generator: Apple Native CoreSVG 149-->
<!DOCTYPE svg
PUBLIC "-//W3C//DTD SVG 1.1//EN"
       "http://www.w3.org/Graphics/SVG/1.1/DTD/svg11.dtd">
<svg version="1.1" xmlns="http://www.w3.org/2000/svg" xmlns:xlink="http://www.w3.org/1999/xlink" width="3300" height="2200">
 <!--glyph: "uni100C6E.medium", point size: 100.000000, font version: "Version 16.0d18e1", template writer version: "8"-->
 <g id="Notes">
  <rect height="2200" id="artboard" style="fill:white;opacity:1" width="3300" x="0" y="0"/>
  <line id="" style="fill:none;stroke:black;opacity:1;stroke-width:0.5;" x1="263" x2="3036" y1="292" y2="292"/>
  <text style="stroke:none;fill:black;font-family:-apple-system,&quot;SF Pro Display&quot;,&quot;SF Pro Text&quot;,Helvetica,sans-serif;font-weight:bold;" transform="matrix(1 0 0 1 263 322)">Weight/Scale Variations</text>
  <text style="stroke:none;fill:black;font-family:-apple-system,&quot;SF Pro Display&quot;,&quot;SF Pro Text&quot;,Helvetica,sans-serif;text-anchor:middle;" transform="matrix(1 0 0 1 559.711 322)">Ultralight</text>
  <text style="stroke:none;fill:black;font-family:-apple-system,&quot;SF Pro Display&quot;,&quot;SF Pro Text&quot;,Helvetica,sans-serif;text-anchor:middle;" transform="matrix(1 0 0 1 856.422 322)">Thin</text>
  <text style="stroke:none;fill:black;font-family:-apple-system,&quot;SF Pro Display&quot;,&quot;SF Pro Text&quot;,Helvetica,sans-serif;text-anchor:middle;" transform="matrix(1 0 0 1 1153.13 322)">Light</text>
  <text style="stroke:none;fill:black;font-family:-apple-system,&quot;SF Pro Display&quot;,&quot;SF Pro Text&quot;,Helvetica,sans-serif;text-anchor:middle;" transform="matrix(1 0 0 1 1449.84 322)">Regular</text>
  <text style="stroke:none;fill:black;font-family:-apple-system,&quot;SF Pro Display&quot;,&quot;SF Pro Text&quot;,Helvetica,sans-serif;text-anchor:middle;" transform="matrix(1 0 0 1 1746.56 322)">Medium</text>
  <text style="stroke:none;fill:black;font-family:-apple-system,&quot;SF Pro Display&quot;,&quot;SF Pro Text&quot;,Helvetica,sans-serif;text-anchor:middle;" transform="matrix(1 0 0 1 2043.27 322)">Semibold</text>
  <text style="stroke:none;fill:black;font-family:-apple-system,&quot;SF Pro Display&quot;,&quot;SF Pro Text&quot;,Helvetica,sans-serif;text-anchor:middle;" transform="matrix(1 0 0 1 2339.98 322)">Bold</text>
  <text style="stroke:none;fill:black;font-family:-apple-system,&quot;SF Pro Display&quot;,&quot;SF Pro Text&quot;,Helvetica,sans-serif;text-anchor:middle;" transform="matrix(1 0 0 1 2636.69 322)">Heavy</text>
  <text style="stroke:none;fill:black;font-family:-apple-system,&quot;SF Pro Display&quot;,&quot;SF Pro Text&quot;,Helvetica,sans-serif;text-anchor:middle;" transform="matrix(1 0 0 1 2933.4 322)">Black</text>
  <line id="" style="fill:none;stroke:black;opacity:1;stroke-width:0.5;" x1="263" x2="3036" y1="1903" y2="1903"/>
  <g id="" transform="matrix(1 0 0 1 263 1933)">
   <path d="M9.24805 0.830078C13.5547 0.830078 17.1387-2.74414 17.1387-7.05078C17.1387-11.3574 13.5449-14.9316 9.23828-14.9316C4.94141-14.9316 1.36719-11.3574 1.36719-7.05078C1.36719-2.74414 4.95117 0.830078 9.24805 0.830078ZM9.24805-0.654297C5.70312-0.654297 2.87109-3.49609 2.87109-7.05078C2.87109-10.6055 5.69336-13.4473 9.23828-13.4473C12.793-13.4473 15.6348-10.6055 15.6445-7.05078C15.6543-3.49609 12.8027-0.654297 9.24805-0.654297ZM6.39648-6.31836L8.50586-6.31836L8.50586-4.19922C8.50586-3.75977 8.79883-3.45703 9.22852-3.45703C9.67773-3.45703 9.9707-3.75977 9.9707-4.19922L9.9707-6.31836L12.0996-6.31836C12.5391-6.31836 12.8418-6.61133 12.8418-7.04102C12.8418-7.48047 12.5391-7.7832 12.0996-7.7832L9.9707-7.7832L9.9707-9.89258C9.9707-10.3418 9.67773-10.6445 9.22852-10.6445C8.79883-10.6445 8.50586-10.3418 8.50586-9.89258L8.50586-7.7832L6.39648-7.7832C5.94727-7.7832 5.64453-7.48047 5.64453-7.04102C5.64453-6.61133 5.94727-6.31836 6.39648-6.31836Z"/>
  </g>
  <g id="" transform="matrix(1 0 0 1 281.506 1933)">
   <path d="M11.709 2.91016C17.1582 2.91016 21.6699-1.61133 21.6699-7.05078C21.6699-12.5 17.1484-17.0117 11.6992-17.0117C6.25977-17.0117 1.74805-12.5 1.74805-7.05078C1.74805-1.61133 6.26953 2.91016 11.709 2.91016ZM11.709 1.25C7.09961 1.25 3.41797-2.44141 3.41797-7.05078C3.41797-11.6602 7.08984-15.3516 11.6992-15.3516C16.3086-15.3516 20-11.6602 20.0098-7.05078C20.0195-2.44141 16.3184 1.25 11.709 1.25ZM7.98828-6.23047L10.8789-6.23047L10.8789-3.32031C10.8789-2.83203 11.2109-2.5 11.6895-2.5C12.1777-2.5 12.5195-2.83203 12.5195-3.32031L12.5195-6.23047L15.4297-6.23047C15.918-6.23047 16.25-6.5625 16.25-7.04102C16.25-7.5293 15.918-7.87109 15.4297-7.87109L12.5195-7.87109L12.5195-10.7617C12.5195-11.2695 12.1777-11.6016 11.6895-11.6016C11.2109-11.6016 10.8789-11.2598 10.8789-10.7617L10.8789-7.87109L7.98828-7.87109C7.48047-7.87109 7.14844-7.5293 7.14844-7.04102C7.14844-6.5625 7.49023-6.23047 7.98828-6.23047Z"/>
  </g>
  <g id="" transform="matrix(1 0 0 1 304.924 1933)">
   <path d="M14.9707 5.66406C21.9336 5.66406 27.6953-0.0976562 27.6953-7.05078C27.6953-14.0137 21.9238-19.7754 14.9609-19.7754C8.00781-19.7754 2.25586-14.0137 2.25586-7.05078C2.25586-0.0976562 8.01758 5.66406 14.9707 5.66406ZM14.9707 3.84766C8.93555 3.84766 4.08203-1.01562 4.08203-7.05078C4.08203-13.0957 8.92578-17.9492 14.9609-17.9492C21.0059-17.9492 25.8594-13.0957 25.8691-7.05078C25.8789-1.01562 21.0156 3.84766 14.9707 3.84766ZM10.0586-6.14258L14.0625-6.14258L14.0625-2.12891C14.0625-1.5918 14.4336-1.2207 14.9512-1.2207C15.4883-1.2207 15.8594-1.5918 15.8594-2.12891L15.8594-6.14258L19.8828-6.14258C20.4102-6.14258 20.791-6.51367 20.791-7.03125C20.791-7.56836 20.4199-7.94922 19.8828-7.94922L15.8594-7.94922L15.8594-11.9531C15.8594-12.5098 15.4883-12.8809 14.9512-12.8809C14.4336-12.8809 14.0625-12.5 14.0625-11.9531L14.0625-7.94922L10.0586-7.94922C9.50195-7.94922 9.13086-7.56836 9.13086-7.03125C9.13086-6.51367 9.51172-6.14258 10.0586-6.14258Z"/>
  </g>
  <text style="stroke:none;fill:black;font-family:-apple-system,&quot;SF Pro Display&quot;,&quot;SF Pro Text&quot;,Helvetica,sans-serif;font-weight:bold;" transform="matrix(1 0 0 1 263 1953)">Design Variations</text>
  <text style="stroke:none;fill:black;font-family:-apple-system,&quot;SF Pro Display&quot;,&quot;SF Pro Text&quot;,Helvetica,sans-serif;" transform="matrix(1 0 0 1 263 1971)">Symbols are supported in up to nine weights and three scales.</text>
  <text style="stroke:none;fill:black;font-family:-apple-system,&quot;SF Pro Display&quot;,&quot;SF Pro Text&quot;,Helvetica,sans-serif;" transform="matrix(1 0 0 1 263 1989)">For optimal layout with text and other symbols, vertically align</text>
  <text style="stroke:none;fill:black;font-family:-apple-system,&quot;SF Pro Display&quot;,&quot;SF Pro Text&quot;,Helvetica,sans-serif;" transform="matrix(1 0 0 1 263 2007)">symbols with the adjacent text.</text>
  <line id="" style="fill:none;stroke:#00AEEF;stroke-width:0.5;opacity:1.0;" x1="776" x2="776" y1="1919" y2="1933"/>
  <g id="" transform="matrix(1 0 0 1 776 1933)">
   <path d="M3.31055 0.126953C3.82812 0.126953 4.08203-0.0683594 4.26758-0.605469L5.52734-4.0625L11.2891-4.0625L12.5488-0.605469C12.7344-0.0683594 12.9883 0.126953 13.4961 0.126953C14.0137 0.126953 14.3457-0.185547 14.3457-0.673828C14.3457-0.839844 14.3164-0.986328 14.2383-1.20117L9.6582-13.3887C9.43359-13.9941 9.0332-14.2871 8.4082-14.2871C7.80273-14.2871 7.39258-13.9941 7.17773-13.3984L2.59766-1.19141C2.51953-0.976562 2.49023-0.830078 2.49023-0.664062C2.49023-0.175781 2.80273 0.126953 3.31055 0.126953ZM6.00586-5.53711L8.37891-12.1094L8.42773-12.1094L10.8008-5.53711Z"/>
  </g>
  <line id="" style="fill:none;stroke:#00AEEF;stroke-width:0.5;opacity:1.0;" x1="792.836" x2="792.836" y1="1919" y2="1933"/>
  <text style="stroke:none;fill:black;font-family:-apple-system,&quot;SF Pro Display&quot;,&quot;SF Pro Text&quot;,Helvetica,sans-serif;font-weight:bold;" transform="matrix(1 0 0 1 776 1953)">Margins</text>
  <text style="stroke:none;fill:black;font-family:-apple-system,&quot;SF Pro Display&quot;,&quot;SF Pro Text&quot;,Helvetica,sans-serif;" transform="matrix(1 0 0 1 776 1971)">Leading and trailing margins on the left and right side of each symbol</text>
  <text style="stroke:none;fill:black;font-family:-apple-system,&quot;SF Pro Display&quot;,&quot;SF Pro Text&quot;,Helvetica,sans-serif;" transform="matrix(1 0 0 1 776 1989)">can be adjusted by modifying the x-location of the margin guidelines.</text>
  <text style="stroke:none;fill:black;font-family:-apple-system,&quot;SF Pro Display&quot;,&quot;SF Pro Text&quot;,Helvetica,sans-serif;" transform="matrix(1 0 0 1 776 2007)">Modifications are automatically applied proportionally to all</text>
  <text style="stroke:none;fill:black;font-family:-apple-system,&quot;SF Pro Display&quot;,&quot;SF Pro Text&quot;,Helvetica,sans-serif;" transform="matrix(1 0 0 1 776 2025)">scales and weights.</text>
  <g id="" transform="matrix(1 0 0 1 1289 1933)">
   <path d="M2.8418 1.86523L4.54102 3.57422C5.40039 4.44336 6.38672 4.38477 7.31445 3.35938L17.4902-7.85156C17.7539-7.76367 18.0273-7.7832 18.3398-7.8418L19.4043-8.03711L20.0684-7.36328L20.0293-6.80664C19.9902-6.30859 20.1172-5.92773 20.6055-5.44922L21.3672-4.70703C21.8457-4.22852 22.4609-4.19922 22.9297-4.66797L25.8398-7.58789C26.3086-8.05664 26.2891-8.65234 25.8105-9.13086L25.0391-9.89258C24.5605-10.3711 24.1895-10.5273 23.7109-10.4883L23.1348-10.4395L22.4902-11.0742L22.7344-12.1973C22.8613-12.7637 22.7051-13.2031 22.1191-13.7891L19.9219-15.9766C16.582-19.2969 12.1484-19.2188 9.25781-16.3281C8.83789-15.918 8.80859-15.3418 9.04297-14.9512C9.27734-14.5898 9.73633-14.3555 10.3809-14.5215C11.8457-14.8633 13.3691-14.9219 14.7949-13.9844L14.209-12.5293C14.0137-12.0508 13.9844-11.6504 14.1113-11.2891L3.04688-0.898438C2.06055 0.0195312 1.98242 0.996094 2.8418 1.86523ZM10.752-15.957C13.1836-17.7344 16.4746-17.4316 18.7012-15.2051L21.1328-12.793C21.3672-12.5586 21.4062-12.373 21.3379-12.0312L21.0156-10.5469L22.5195-9.0625L23.5059-9.12109C23.7598-9.13086 23.8379-9.11133 24.0332-8.91602L24.6094-8.33984L22.168-5.89844L21.5918-6.47461C21.3965-6.66992 21.3672-6.74805 21.377-7.01172L21.4453-7.98828L19.9512-9.47266L18.4277-9.21875C18.1055-9.15039 17.959-9.17969 17.7148-9.41406L15.7129-11.416C15.459-11.6504 15.4297-11.8164 15.5859-12.1875L16.4648-14.2773C14.9023-15.7324 12.8711-16.3574 10.8398-15.7617C10.6836-15.7227 10.625-15.8496 10.752-15.957ZM5.27344 2.30469L4.10156 1.14258C3.63281 0.683594 3.74023 0.341797 4.14062-0.0195312L14.9512-10.1953L16.416-8.71094L6.42578 2.27539C6.07422 2.67578 5.74219 2.77344 5.27344 2.30469Z"/>
  </g>
  <text style="stroke:none;fill:black;font-family:-apple-system,&quot;SF Pro Display&quot;,&quot;SF Pro Text&quot;,Helvetica,sans-serif;font-weight:bold;" transform="matrix(1 0 0 1 1289 1953)">Exporting</text>
  <text style="stroke:none;fill:black;font-family:-apple-system,&quot;SF Pro Display&quot;,&quot;SF Pro Text&quot;,Helvetica,sans-serif;" transform="matrix(1 0 0 1 1289 1971)">Symbols should be outlined when exporting to ensure the</text>
  <text style="stroke:none;fill:black;font-family:-apple-system,&quot;SF Pro Display&quot;,&quot;SF Pro Text&quot;,Helvetica,sans-serif;" transform="matrix(1 0 0 1 1289 1989)">design is preserved when submitting to Xcode.</text>
  <text id="template-version" style="stroke:none;fill:black;font-family:-apple-system,&quot;SF Pro Display&quot;,&quot;SF Pro Text&quot;,Helvetica,sans-serif;text-anchor:end;" transform="matrix(1 0 0 1 3036 1933)">Template v.2.0</text>
  <text style="stroke:none;fill:black;font-family:-apple-system,&quot;SF Pro Display&quot;,&quot;SF Pro Text&quot;,Helvetica,sans-serif;text-anchor:end;" transform="matrix(1 0 0 1 3036 1951)">Requires Xcode 12 or greater</text>
  <text style="stroke:none;fill:black;font-family:-apple-system,&quot;SF Pro Display&quot;,&quot;SF Pro Text&quot;,Helvetica,sans-serif;text-anchor:end;" transform="matrix(1 0 0 1 3036 1969)">Generated from phone.bubble.left</text>
  <text style="stroke:none;fill:black;font-family:-apple-system,&quot;SF Pro Display&quot;,&quot;SF Pro Text&quot;,Helvetica,sans-serif;text-anchor:end;" transform="matrix(1 0 0 1 3036 1987)">Typeset at 100 points</text>
  <text style="stroke:none;fill:black;font-family:-apple-system,&quot;SF Pro Display&quot;,&quot;SF Pro Text&quot;,Helvetica,sans-serif;" transform="matrix(1 0 0 1 263 726)">Small</text>
  <text style="stroke:none;fill:black;font-family:-apple-system,&quot;SF Pro Display&quot;,&quot;SF Pro Text&quot;,Helvetica,sans-serif;" transform="matrix(1 0 0 1 263 1156)">Medium</text>
  <text style="stroke:none;fill:black;font-family:-apple-system,&quot;SF Pro Display&quot;,&quot;SF Pro Text&quot;,Helvetica,sans-serif;" transform="matrix(1 0 0 1 263 1586)">Large</text>
 </g>
 <g id="Guides">
  <g id="H-reference" style="fill:#27AAE1;stroke:none;" transform="matrix(1 0 0 1 339 696)">
   <path d="M0.976562 0L3.66211 0L12.9883-24.4629L45.752-24.4629L55.127 0L57.7637 0L30.6152-70.459L28.125-70.459ZM29.3457-67.1387L29.4434-67.1387L44.873-26.709L13.8672-26.709Z"/>
  </g>
  <line id="Baseline-S" style="fill:none;stroke:#27AAE1;opacity:1;stroke-width:0.5;" x1="263" x2="3036" y1="696" y2="696"/>
  <line id="Capline-S" style="fill:none;stroke:#27AAE1;opacity:1;stroke-width:0.5;" x1="263" x2="3036" y1="625.541" y2="625.541"/>
  <g id="H-reference" style="fill:#27AAE1;stroke:none;" transform="matrix(1 0 0 1 339 1126)">
   <path d="M0.976562 0L3.66211 0L12.9883-24.4629L45.752-24.4629L55.127 0L57.7637 0L30.6152-70.459L28.125-70.459ZM29.3457-67.1387L29.4434-67.1387L44.873-26.709L13.8672-26.709Z"/>
  </g>
  <line id="Baseline-M" style="fill:none;stroke:#27AAE1;opacity:1;stroke-width:0.5;" x1="263" x2="3036" y1="1126" y2="1126"/>
  <line id="Capline-M" style="fill:none;stroke:#27AAE1;opacity:1;stroke-width:0.5;" x1="263" x2="3036" y1="1055.54" y2="1055.54"/>
  <g id="H-reference" style="fill:#27AAE1;stroke:none;" transform="matrix(1 0 0 1 339 1556)">
   <path d="M0.976562 0L3.66211 0L12.9883-24.4629L45.752-24.4629L55.127 0L57.7637 0L30.6152-70.459L28.125-70.459ZM29.3457-67.1387L29.4434-67.1387L44.873-26.709L13.8672-26.709Z"/>
  </g>
  <line id="Baseline-L" style="fill:none;stroke:#27AAE1;opacity:1;stroke-width:0.5;" x1="263" x2="3036" y1="1556" y2="1556"/>
  <line id="Capline-L" style="fill:none;stroke:#27AAE1;opacity:1;stroke-width:0.5;" x1="263" x2="3036" y1="1485.54" y2="1485.54"/>
  <line id="left-margin" style="fill:none;stroke:#00AEEF;stroke-width:0.5;opacity:1.0;" x1="1383.58" x2="1383.58" y1="1030.79" y2="1150.12"/>
  <line id="right-margin" style="fill:none;stroke:#00AEEF;stroke-width:0.5;opacity:1.0;" x1="1516.1" x2="1516.1" y1="1030.79" y2="1150.12"/>
 </g>
 <g id="Symbols">
  <g id="Black-L" transform="matrix(1 0 0 1 2846.24 1556)">
   <path d="M59.7168 38.5742C64.8438 38.5742 69.0918 36.5234 75.3418 31.1035L96.2891 12.8418L125.83 12.8418C145.703 12.8418 158.252 0.195312 158.252-19.5801L158.252-70.1172C158.252-89.8926 145.703-102.539 125.83-102.539L48.4863-102.539C28.6133-102.539 16.0645-89.8926 16.0645-70.1172L16.0645-19.5801C16.0645 0.195312 29.7852 12.8418 46.7285 12.8418L47.7051 12.8418L47.7051 25.3906C47.7051 33.5938 52.2949 38.5742 59.7168 38.5742ZM64.5508 16.2598L64.5508-0.732422C64.5508-5.56641 62.0117-7.37305 57.8613-7.37305L50-7.37305C40.8203-7.37305 36.3281-11.8652 36.3281-21.0938L36.3281-68.6035C36.3281-77.832 40.8203-82.2754 50-82.2754L124.316-82.2754C133.496-82.2754 138.037-77.832 138.037-68.6035L138.037-21.0938C138.037-11.8652 133.496-7.37305 124.316-7.37305L94.5801-7.37305C89.5996-7.37305 87.5488-6.34766 83.8867-2.7832ZM72.8516-30.5664C87.3535-16.0645 105.078-7.22656 115.625-17.7734C116.113-18.2617 116.504-18.75 116.846-19.2383C119.043-22.2656 120.166-26.416 116.26-29.1504C112.793-31.5918 109.375-34.0332 105.859-36.4746C101.953-39.2578 99.8047-38.2812 97.168-35.7422L94.8242-33.4473C94.0918-32.8125 92.8711-32.9102 92.1387-33.3984C89.9902-34.7656 86.4258-37.5977 83.2031-40.8691C80.0293-44.043 76.8555-47.7539 75.6836-49.8047C75.3418-50.3906 74.9512-51.5137 75.7812-52.4414L78.0762-54.834C80.7129-57.666 81.5918-59.5703 78.8086-63.5254L71.4844-73.9746C69.043-77.3926 65.4785-77.3926 60.9863-74.0234C60.6445-73.7793 60.4492-73.5352 60.2051-73.291C49.5605-62.6465 58.4961-44.9219 72.8516-30.5664Z"/>
  </g>
  <g id="Heavy-L" transform="matrix(1 0 0 1 2550.07 1556)">
   <path d="M58.1543 37.2559C62.6953 37.2559 66.4062 35.3516 71.9238 30.5176L93.1152 12.0117L125.879 12.0117C145.264 12.0117 157.178-0.0488281 157.178-19.2383L157.178-69.6289C157.178-88.8184 145.264-100.879 125.879-100.879L47.3145-100.879C27.9785-100.879 16.0645-88.8672 16.0645-69.6289L16.0645-19.2383C16.0645 0 28.8574 12.0117 45.9961 12.0117L47.5586 12.0117L47.5586 25.5371C47.5586 32.8125 51.6113 37.2559 58.1543 37.2559ZM62.3535 17.8711L62.3535 0.585938C62.3535-3.80859 60.2051-5.46875 56.2988-5.46875L48.4863-5.46875C38.5254-5.46875 33.5938-10.498 33.5938-20.4102L33.5938-68.4082C33.5938-78.3691 38.5254-83.3496 48.4863-83.3496L124.707-83.3496C134.668-83.3496 139.648-78.3691 139.648-68.4082L139.648-20.4102C139.648-10.498 134.668-5.46875 124.707-5.46875L91.7969-5.46875C87.2559-5.46875 85.3027-4.58984 81.9824-1.31836ZM71.9727-29.9805C86.4746-15.4785 104.492-6.44531 115.234-17.1875C115.674-17.627 116.064-18.0664 116.406-18.5059C118.799-21.6797 119.824-25.7812 116.064-28.5156C112.842-30.8105 109.57-33.1543 105.371-36.0352C101.562-38.7207 99.3652-37.8906 96.6309-35.2539L94.2383-32.9102C93.5059-32.2266 92.2852-32.3242 91.5039-32.8125C89.3555-34.1797 85.7422-37.0605 82.4219-40.4297C79.1016-43.7012 76.0254-47.4609 74.8047-49.5117C74.4629-50.1465 74.1211-51.2695 74.9023-52.1484L77.2949-54.6387C79.9805-57.5195 80.7129-59.5703 78.0273-63.3789L70.5566-73.9746C68.0664-77.4902 64.4043-77.1973 60.0586-73.9746C59.7168-73.7305 59.4727-73.4863 59.2285-73.2422C48.4375-62.4512 57.5195-44.3848 71.9727-29.9805Z"/>
  </g>
  <g id="Bold-L" transform="matrix(1 0 0 1 2253.97 1556)">
   <path d="M56.4453 35.791C60.3516 35.791 63.3789 34.0332 68.1152 29.9316L89.5996 11.084L125.977 11.084C144.727 11.084 155.957-0.292969 155.957-18.8965L155.957-69.043C155.957-87.6465 144.727-99.0234 125.977-99.0234L46.0449-99.0234C27.2461-99.0234 16.0645-87.6953 16.0645-69.043L16.0645-18.8965C16.0645-0.244141 27.832 11.084 45.166 11.084L47.4609 11.084L47.4609 25.7324C47.4609 31.9336 50.8301 35.791 56.4453 35.791ZM59.9609 19.6777L59.9609 2.00195C59.9609-1.9043 58.1055-3.36914 54.5898-3.36914L46.8262-3.36914C35.9375-3.36914 30.5176-8.93555 30.5176-19.6777L30.5176-68.2617C30.5176-78.9551 35.9375-84.5703 46.8262-84.5703L125.195-84.5703C135.986-84.5703 141.504-78.9551 141.504-68.2617L141.504-19.6777C141.504-8.93555 135.986-3.36914 125.195-3.36914L88.6719-3.36914C84.6191-3.36914 82.8125-2.58789 79.8828 0.292969ZM70.9473-29.3457C85.498-14.7949 103.906-5.56641 114.795-16.4551C115.234-16.8945 115.576-17.334 115.869-17.7246C118.555-20.9473 119.482-25.0977 115.82-27.832C112.842-29.9316 109.814-32.1289 104.834-35.5469C101.123-38.1348 98.8281-37.4512 95.9961-34.7168L93.5547-32.3242C92.8223-31.6406 91.6016-31.6895 90.8203-32.2266C88.6719-33.5449 84.9609-36.4258 81.4941-39.8926C78.125-43.2617 75.0488-47.1191 73.8281-49.1699C73.4863-49.8535 73.1445-50.9277 73.9746-51.8066L76.3672-54.3945C79.1504-57.3242 79.7852-59.5215 77.1484-63.1836L69.5312-74.0234C66.9922-77.6367 63.1836-76.9531 58.9844-73.877C58.6426-73.6328 58.3984-73.3887 58.1543-73.1445C47.2168-62.207 56.4453-43.7988 70.9473-29.3457Z"/>
  </g>
  <g id="Semibold-L" transform="matrix(1 0 0 1 1957.7 1556)">
   <path d="M55.2734 34.7656C58.6914 34.7656 61.3281 33.1055 65.4785 29.4922L87.1582 10.4492L126.025 10.4492C144.385 10.4492 155.078-0.439453 155.078-18.6035L155.078-68.6523C155.078-86.8164 144.385-97.7539 126.025-97.7539L45.166-97.7539C26.7578-97.7539 16.0645-86.8652 16.0645-68.6523L16.0645-18.6035C16.0645-0.390625 27.1484 10.4492 44.5801 10.4492L47.3633 10.4492L47.3633 25.8789C47.3633 31.3477 50.3418 34.7656 55.2734 34.7656ZM58.252 20.9473L58.252 3.02734C58.252-0.537109 56.6895-1.9043 53.3691-1.9043L45.6543-1.9043C34.1797-1.9043 28.418-7.91016 28.418-19.1406L28.418-68.1152C28.418-79.3945 34.1797-85.4004 45.6543-85.4004L125.488-85.4004C136.914-85.4004 142.773-79.3945 142.773-68.1152L142.773-19.1406C142.773-7.91016 136.914-1.9043 125.488-1.9043L86.5234-1.9043C82.8125-1.9043 81.0547-1.2207 78.418 1.41602ZM70.2637-28.9062C84.8145-14.3066 103.467-4.98047 114.502-16.0156C114.893-16.4062 115.186-16.7969 115.527-17.1875C118.359-20.5078 119.189-24.6094 115.625-27.3438C112.891-29.3457 109.961-31.3965 104.443-35.2051C100.83-37.7441 98.4375-37.1582 95.6055-34.375L93.1152-31.8848C92.3828-31.2012 91.1621-31.2988 90.332-31.7871C88.1836-33.1055 84.4238-35.9863 80.9082-39.5508C77.4414-43.0176 74.3652-46.875 73.1934-48.9258C72.7539-49.6582 72.5098-50.7324 73.291-51.5625L75.7812-54.1992C78.5645-57.2266 79.1504-59.4727 76.5625-63.0859L68.8477-74.0234C66.2109-77.7344 62.3535-76.8066 58.252-73.8281C57.9102-73.584 57.666-73.3398 57.4219-73.0957C46.3867-62.0605 55.7617-43.4082 70.2637-28.9062Z"/>
  </g>
  <g id="Medium-L" transform="matrix(1 0 0 1 1661.3 1556)">
   <path d="M54.3457 33.9844C57.4707 33.9844 59.7656 32.4219 63.4766 29.1504L85.3027 9.96094L126.025 9.96094C144.092 9.96094 154.443-0.585938 154.443-18.457L154.443-68.3594C154.443-86.2305 144.092-96.7773 126.025-96.7773L44.4824-96.7773C26.3672-96.7773 16.0645-86.2793 16.0645-68.3594L16.0645-18.457C16.0645-0.537109 26.6113 9.96094 44.1406 9.96094L47.3145 9.96094L47.3145 25.9766C47.3145 30.9082 49.9512 33.9844 54.3457 33.9844ZM56.9824 21.9238L56.9824 3.75977C56.9824 0.488281 55.6152-0.78125 52.4414-0.78125L44.7754-0.78125C32.8125-0.78125 26.8066-7.08008 26.8066-18.75L26.8066-68.0176C26.8066-79.6875 32.8125-86.0352 44.7754-86.0352L125.732-86.0352C137.598-86.0352 143.701-79.6875 143.701-68.0176L143.701-18.75C143.701-7.08008 137.598-0.78125 125.732-0.78125L84.8633-0.78125C81.4453-0.78125 79.7363-0.195312 77.2949 2.24609ZM69.7266-28.5645C84.3262-13.9648 103.174-4.54102 114.258-15.625C114.648-16.0156 114.941-16.4062 115.283-16.748C118.213-20.1172 118.994-24.2188 115.527-27.002C112.891-28.9062 110.107-30.8594 104.15-34.9609C100.635-37.4512 98.1934-36.9141 95.2637-34.082L92.7246-31.5918C92.041-30.8594 90.8203-30.957 89.9902-31.4453C87.793-32.7637 84.0332-35.6934 80.4688-39.2578C76.9043-42.7734 73.877-46.6797 72.6562-48.7793C72.2656-49.5117 72.0215-50.5859 72.8027-51.416L75.293-54.0527C78.1738-57.1289 78.6133-59.4727 76.123-62.9883L68.3105-74.0723C65.6738-77.832 61.7676-76.709 57.7148-73.7793C57.373-73.584 57.1289-73.291 56.8848-73.0469C45.752-61.9141 55.1758-43.1152 69.7266-28.5645Z"/>
  </g>
  <g id="Regular-L" transform="matrix(1 0 0 1 1365.01 1556)">
   <path d="M53.1738 32.959C55.8594 32.959 57.7148 31.543 60.8887 28.7109L82.9102 9.32617L126.074 9.32617C143.75 9.32617 153.613-0.78125 153.613-18.1641L153.613-67.9688C153.613-85.4004 143.75-95.5078 126.074-95.5078L43.6035-95.5078C25.8789-95.5078 16.0645-85.4492 16.0645-67.9688L16.0645-18.1641C16.0645-0.683594 25.8789 9.32617 43.6035 9.32617L47.2656 9.32617L47.2656 26.123C47.2656 30.2734 49.4141 32.959 53.1738 32.959ZM55.3223 23.1445L55.3223 4.78516C55.3223 1.80664 54.1992 0.683594 51.2695 0.683594L43.6523 0.683594C31.0547 0.683594 24.707-6.05469 24.707-18.2617L24.707-67.9199C24.707-80.127 31.0547-86.8652 43.6523-86.8652L126.025-86.8652C138.477-86.8652 144.971-80.127 144.971-67.9199L144.971-18.2617C144.971-6.05469 138.477 0.683594 126.025 0.683594L82.7148 0.683594C79.6387 0.683594 78.0273 1.17188 75.8789 3.36914ZM69.043-28.125C83.6426-13.5254 102.734-3.90625 113.965-15.1367C114.355-15.5273 114.6-15.8691 114.893-16.2109C118.066-19.6777 118.75-23.7305 115.332-26.5137C112.939-28.3203 110.254-30.1758 103.809-34.6191C100.342-37.0117 97.8027-36.6211 94.873-33.6914L92.2852-31.2012C91.5527-30.4688 90.3809-30.5176 89.502-31.0547C87.3047-32.3242 83.4961-35.2539 79.834-38.916C76.2207-42.5293 73.1934-46.4355 72.0215-48.5352C71.582-49.3164 71.3379-50.3418 72.168-51.1719L74.6582-53.9062C77.5879-57.0312 77.9785-59.4238 75.5371-62.8418L67.627-74.0723C64.9414-77.9297 60.9375-76.5625 56.9824-73.7305C56.6406-73.5352 56.3965-73.2422 56.1523-72.998C44.873-61.7676 54.4434-42.6758 69.043-28.125Z"/>
  </g>
  <g id="Light-L" transform="matrix(1 0 0 1 1069.2 1556)">
   <path d="M50.9277 31.5918C52.9785 31.5918 54.4922 30.4688 56.7871 28.418L79.1504 8.98438L126.074 8.98438C142.334 8.98438 151.807-0.683594 151.807-16.6992L151.807-68.6035C151.807-84.6191 142.334-94.2871 126.074-94.2871L41.7969-94.2871C25.5371-94.2871 16.0645-84.7168 16.0645-68.6035L16.0645-16.6992C16.0645-0.585938 25.5371 8.98438 41.7969 8.98438L46.3379 8.98438L46.3379 26.3184C46.3379 29.541 48.0957 31.5918 50.9277 31.5918ZM52.5391 24.1211L52.5391 5.51758C52.5391 3.27148 51.6602 2.34375 49.3652 2.34375L41.8945 2.34375C29.541 2.34375 22.7051-4.73633 22.7051-16.8457L22.7051-68.5059C22.7051-80.5664 29.541-87.6953 41.8945-87.6953L125.977-87.6953C138.135-87.6953 145.166-80.5664 145.166-68.5059L145.166-16.8457C145.166-4.73633 138.135 2.34375 125.977 2.34375L79.3457 2.34375C76.8066 2.34375 75.4883 2.7832 73.584 4.63867ZM67.4805-27.3926C81.8848-12.9395 101.514-3.07617 112.939-14.5508C113.281-14.8438 113.428-15.0879 113.672-15.3809C117.236-19.0918 117.822-22.998 114.795-25.6836C113.037-27.0996 110.889-28.5156 102.686-34.1309C99.5605-36.3281 96.9238-36.1816 93.75-33.1055L91.1133-30.5176C90.3809-29.7852 89.2578-29.7852 88.3301-30.3223C86.1816-31.5918 82.2266-34.4727 78.3691-38.2812C74.6094-42.0898 71.6309-46.1426 70.459-48.1934C70.0195-49.0723 69.9219-50 70.6543-50.7812L73.2422-53.6133C76.2695-56.9336 76.3672-59.5215 74.1699-62.5977L66.0645-74.1699C63.2324-78.1738 59.082-76.0254 55.5176-73.584C55.127-73.3398 54.8828-73.0469 54.6387-72.8027C43.2129-61.377 53.0273-41.8457 67.4805-27.3926Z"/>
  </g>
  <g id="Thin-L" transform="matrix(1 0 0 1 773.683 1556)">
   <path d="M47.9492 29.7852C49.2188 29.7852 50.2441 29.0527 51.416 28.0273L74.2188 8.54492L126.074 8.54492C140.43 8.54492 149.414-0.634766 149.414-14.7949L149.414-69.3848C149.414-83.5449 140.43-92.7246 126.074-92.7246L39.3555-92.7246C25.0488-92.7246 16.0645-83.6914 16.0645-69.3848L16.0645-14.7949C16.0645-0.488281 25.0488 8.54492 39.3555 8.54492L45.1172 8.54492L45.1172 26.5137C45.1172 28.5156 46.2891 29.7852 47.9492 29.7852ZM48.8281 25.4395L48.8281 6.54297C48.8281 5.17578 48.2422 4.58984 46.875 4.58984L39.502 4.58984C27.5391 4.58984 19.9707-2.97852 19.9707-14.9414L19.9707-69.2383C19.9707-81.2012 27.5391-88.7695 39.502-88.7695L125.928-88.7695C137.646-88.7695 145.459-81.2012 145.459-69.2383L145.459-14.9414C145.459-2.97852 137.646 4.58984 125.928 4.58984L74.8535 4.58984C73.0469 4.58984 72.1191 4.93164 70.6055 6.34766ZM65.3809-26.416C79.5898-12.207 99.8535-1.95312 111.621-13.6719C111.865-13.9648 111.914-14.0625 112.061-14.2578C116.113-18.3594 116.553-21.9727 114.014-24.6094C113.135-25.4883 111.67-26.3672 101.27-33.4961C98.584-35.3516 95.7031-35.5957 92.334-32.3242L89.5508-29.6387C88.8184-28.9062 87.7441-28.8574 86.8164-29.3945C84.7168-30.6152 80.5176-33.4473 76.4648-37.5C72.4121-41.5527 69.5312-45.7031 68.457-47.7539C67.9688-48.7305 68.0176-49.5605 68.6523-50.293L71.3867-53.2715C74.5605-56.8359 74.2676-59.668 72.4121-62.3047L64.0137-74.2676C61.0352-78.5156 56.6406-75.293 53.5645-73.3887C53.1738-73.1445 52.9297-72.8027 52.6855-72.5586C41.0156-60.8887 51.123-40.7227 65.3809-26.416Z"/>
  </g>
  <g id="Ultralight-L" transform="matrix(1 0 0 1 477.607 1556)">
   <path d="M46.4355 28.8574C47.3145 28.8574 48.0469 28.3203 48.6816 27.832L71.6797 8.30078L126.074 8.30078C139.453 8.30078 148.145-0.585938 148.145-13.8184L148.145-69.8242C148.145-83.0078 139.453-91.8945 126.074-91.8945L38.1348-91.8945C24.8047-91.8945 16.0645-83.2031 16.0645-69.8242L16.0645-13.8184C16.0645-0.439453 24.8047 8.30078 38.1348 8.30078L44.4824 8.30078L44.4824 26.6113C44.4824 28.0273 45.3613 28.8574 46.4355 28.8574ZM46.9238 26.0742L46.9238 7.03125C46.9238 6.15234 46.4844 5.71289 45.6055 5.71289L38.3301 5.71289C26.5137 5.71289 18.6035-2.09961 18.6035-13.9648L18.6035-69.6289C18.6035-81.4941 26.5137-89.3555 38.3301-89.3555L125.928-89.3555C137.354-89.3555 145.605-81.4941 145.605-69.6289L145.605-13.9648C145.605-2.09961 137.354 5.71289 125.928 5.71289L72.5098 5.71289C71.0938 5.71289 70.4102 6.05469 69.043 7.22656ZM64.3555-25.9277C78.418-11.8652 99.0234-1.36719 110.938-13.2812C111.133-13.4766 111.133-13.5254 111.279-13.6719C115.576-17.9688 115.918-21.4355 113.623-24.0723C113.232-24.6582 112.109-25.2441 100.537-33.2031C98.0469-34.8633 95.1172-35.3027 91.6016-31.9336L88.7695-29.1992C88.0371-28.4668 87.0117-28.3691 86.0352-28.9062C83.9355-30.127 79.6387-32.9102 75.4883-37.0605C71.2891-41.2598 68.457-45.459 67.3828-47.5586C66.8945-48.5352 67.041-49.3164 67.6758-50L70.4102-53.125C73.6816-56.7871 73.1934-59.7656 71.4844-62.1094L62.9883-74.3164C59.8633-78.7109 55.4199-74.9023 52.5391-73.2422C52.1484-72.998 51.9043-72.7051 51.6602-72.4609C39.8438-60.6445 50.1465-40.1367 64.3555-25.9277Z"/>
  </g>
  <g id="Black-M" transform="matrix(1 0 0 1 2865.58 1126)">
   <path d="M47.168 23.0469C51.5625 23.0469 55.4199 21.4355 60.8398 16.748L76.9043 2.97852L97.4609 2.97852C112.793 2.97852 123.193-7.42188 123.193-22.7539L123.193-63.2812C123.193-78.6133 112.793-89.0137 97.4609-89.0137L38.1836-89.0137C22.8516-89.0137 12.4512-78.6133 12.4512-63.2812L12.4512-22.7539C12.4512-7.42188 24.1211 2.97852 36.2793 2.97852L36.6211 2.97852L36.6211 11.5723C36.6211 18.75 40.7227 23.0469 47.168 23.0469ZM51.4648 2.97852L51.4648-9.81445C51.4648-13.8184 49.1699-15.332 45.9473-15.332L39.8438-15.332C33.9355-15.332 30.7617-18.2617 30.7617-24.4141L30.7617-61.6211C30.7617-67.7734 33.9355-70.7031 39.8438-70.7031L95.8008-70.7031C101.66-70.7031 104.883-67.7734 104.883-61.6211L104.883-24.4141C104.883-18.2617 101.66-15.332 95.8008-15.332L75.2441-15.332C71.0938-15.332 69.4824-14.4043 66.3574-11.377ZM56.8848-31.9824C67.9199-20.8984 81.4941-14.1113 89.5996-22.2168C89.9902-22.6074 90.2832-22.9492 90.5273-23.3398C92.1387-25.6836 93.1152-28.8086 90.0879-30.9082C87.4512-32.8125 84.8145-34.668 82.1289-36.5234C79.1504-38.6719 77.5391-37.8906 75.4883-35.9863L73.6816-34.2285C73.0957-33.7402 72.168-33.7891 71.6309-34.1797C70.0195-35.2051 67.2363-37.4023 64.7461-39.8926C62.3535-42.334 59.9121-45.166 59.0332-46.7285C58.7891-47.168 58.4961-48.0469 59.082-48.7305L60.8398-50.5859C62.8418-52.7832 63.5254-54.1992 61.4258-57.2754L55.8105-65.2344C53.9551-67.8711 51.1719-67.8711 47.7539-65.2832C47.5098-65.1367 47.3145-64.9414 47.168-64.7461C39.0137-56.5918 45.8496-43.0176 56.8848-31.9824Z"/>
  </g>
  <g id="Heavy-M" transform="matrix(1 0 0 1 2569.23 1126)">
   <path d="M46.0449 21.9238C50 21.9238 53.3203 20.4102 58.1543 16.2109L74.4141 2.14844L97.5098 2.14844C112.646 2.14844 122.461-7.71484 122.461-22.8027L122.461-62.5488C122.461-77.6367 112.646-87.5 97.5098-87.5L37.4023-87.5C22.2656-87.5 12.4512-77.6367 12.4512-62.5488L12.4512-22.8027C12.4512-7.71484 23.2422 2.14844 35.9375 2.14844L36.7188 2.14844L36.7188 11.7676C36.7188 18.1152 40.332 21.9238 46.0449 21.9238ZM49.8047 4.54102L49.8047-8.59375C49.8047-12.3047 47.8516-13.6719 44.7266-13.6719L38.6719-13.6719C31.8359-13.6719 28.2715-17.1387 28.2715-24.0723L28.2715-61.2793C28.2715-68.2129 31.8359-71.6797 38.6719-71.6797L96.2402-71.6797C103.076-71.6797 106.641-68.2129 106.641-61.2793L106.641-24.0723C106.641-17.1387 103.076-13.6719 96.2402-13.6719L73.0957-13.6719C69.2871-13.6719 67.7246-12.8418 64.8926-10.1074ZM56.2988-31.543C67.4316-20.4102 81.25-13.4766 89.4531-21.6797C89.7949-22.0703 90.0879-22.4121 90.332-22.8027C92.0898-25.1953 92.9688-28.3203 90.0391-30.4688C87.4512-32.2754 84.8633-34.082 81.8848-36.1816C78.9062-38.2812 77.2461-37.5977 75.1465-35.5957L73.3398-33.8379C72.7539-33.3008 71.8262-33.3496 71.2402-33.7402C69.5801-34.8145 66.8457-37.0117 64.2578-39.5508C61.7676-42.041 59.375-44.9219 58.4961-46.4844C58.2031-46.9727 57.9102-47.8516 58.5449-48.5352L60.3516-50.4395C62.3535-52.6367 62.9883-54.1504 60.8887-57.1289L55.2246-65.2344C53.3203-67.9199 50.4883-67.7734 47.1191-65.2832C46.875-65.0879 46.6797-64.8926 46.4844-64.6973C38.2324-56.4453 45.166-42.6758 56.2988-31.543Z"/>
  </g>
  <g id="Bold-M" transform="matrix(1 0 0 1 2272.94 1126)">
   <path d="M44.8242 20.7031C48.2422 20.7031 50.9766 19.2871 55.1758 15.625L71.6309 1.2207L97.5586 1.2207C112.5 1.2207 121.631-8.00781 121.631-22.8027L121.631-61.7676C121.631-76.5625 112.5-85.791 97.5586-85.791L36.4746-85.791C21.582-85.791 12.4512-76.6113 12.4512-61.7676L12.4512-22.8027C12.4512-7.95898 22.2168 1.2207 35.5469 1.2207L36.8652 1.2207L36.8652 11.9141C36.8652 17.3828 39.8926 20.7031 44.8242 20.7031ZM47.9492 6.20117L47.9492-7.22656C47.9492-10.5957 46.3379-11.8652 43.3594-11.8652L37.3535-11.8652C29.4434-11.8652 25.5371-15.8203 25.5371-23.6328L25.5371-60.9375C25.5371-68.75 29.4434-72.7539 37.3535-72.7539L96.7285-72.7539C104.59-72.7539 108.545-68.75 108.545-60.9375L108.545-23.6328C108.545-15.8203 104.59-11.8652 96.7285-11.8652L70.6543-11.8652C67.2363-11.8652 65.7227-11.1816 63.2324-8.69141ZM55.6152-31.0547C66.8945-19.8242 80.9082-12.793 89.2578-21.1426C89.5996-21.4844 89.8926-21.8262 90.1367-22.168C92.041-24.6094 92.8223-27.7832 89.8926-29.9316C87.4512-31.6895 84.9609-33.4473 81.5918-35.791C78.6621-37.8418 76.9531-37.207 74.8047-35.2051L72.9492-33.3496C72.3633-32.8125 71.4355-32.9102 70.8008-33.252C69.1406-34.3262 66.3574-36.5723 63.7207-39.1602C61.1816-41.6992 58.7891-44.6289 57.8613-46.2402C57.5684-46.7285 57.2754-47.6074 57.9102-48.291L59.7656-50.2441C61.8652-52.4902 62.4512-54.0527 60.3516-57.0312L54.541-65.2832C52.5879-68.0176 49.7559-67.7246 46.3867-65.2344C46.1426-65.0391 45.9473-64.8438 45.752-64.6484C37.3535-56.2988 44.4336-42.2363 55.6152-31.0547Z"/>
  </g>
  <g id="Semibold-M" transform="matrix(1 0 0 1 1976.52 1126)">
   <path d="M43.9941 19.873C47.0215 19.873 49.3652 18.5059 53.0762 15.2344L69.7266 0.585938L97.6074 0.585938C112.402 0.585938 121.045-8.20312 121.045-22.8027L121.045-61.2305C121.045-75.8301 112.402-84.668 97.6074-84.668L35.8887-84.668C21.0938-84.668 12.4512-75.8789 12.4512-61.2305L12.4512-22.8027C12.4512-8.1543 21.4844 0.585938 35.2539 0.585938L36.9629 0.585938L36.9629 12.0117C36.9629 16.8457 39.5996 19.873 43.9941 19.873ZM46.6797 7.42188L46.6797-6.29883C46.6797-9.42383 45.3125-10.5469 42.4316-10.5469L36.4258-10.5469C27.7832-10.5469 23.6328-14.9414 23.6328-23.3887L23.6328-60.6934C23.6328-69.1406 27.7832-73.4863 36.4258-73.4863L97.0703-73.4863C105.664-73.4863 109.863-69.1406 109.863-60.6934L109.863-23.3887C109.863-14.9414 105.664-10.5469 97.0703-10.5469L68.9941-10.5469C65.8203-10.5469 64.3555-10.0098 62.0605-7.71484ZM55.1758-30.7129C66.5039-19.4336 80.7129-12.3047 89.1113-20.7031C89.4531-21.0938 89.7461-21.3867 89.9902-21.7285C92.041-24.2188 92.7246-27.4414 89.8438-29.5898C87.4512-31.2988 85.0098-33.0078 81.3965-35.498C78.4668-37.5488 76.709-36.9629 74.5605-34.9121L72.6562-33.0078C72.1191-32.4707 71.1426-32.5684 70.5566-32.959C68.8477-33.9844 66.0156-36.2305 63.3789-38.916C60.7422-41.5039 58.3496-44.4336 57.4219-46.0449C57.1289-46.582 56.8848-47.4609 57.5195-48.0957L59.375-50.0977C61.5234-52.3438 62.0605-54.0039 59.9609-56.9336L54.1016-65.2832C52.0996-68.0664 49.2188-67.6758 45.8984-65.2344C45.6055-65.0391 45.4102-64.8438 45.2637-64.6484C36.7676-56.2012 43.8965-41.9922 55.1758-30.7129Z"/>
  </g>
  <g id="Medium-M" transform="matrix(1 0 0 1 1680.03 1126)">
   <path d="M43.3105 19.2383C46.0938 19.2383 48.1445 17.8711 51.5137 14.8926L68.2617 0.146484L97.6562 0.146484C112.354 0.146484 120.605-8.34961 120.605-22.8516L120.605-60.791C120.605-75.293 112.354-83.7891 97.6562-83.7891L35.4004-83.7891C20.752-83.7891 12.4512-75.293 12.4512-60.791L12.4512-22.8516C12.4512-8.30078 20.9961 0.146484 35.0586 0.146484L37.0605 0.146484L37.0605 12.1094C37.0605 16.4551 39.3555 19.2383 43.3105 19.2383ZM45.752 8.30078L45.752-5.61523C45.752-8.49609 44.4824-9.61914 41.748-9.61914L35.7422-9.61914C26.5625-9.61914 22.168-14.2578 22.168-23.1445L22.168-60.498C22.168-69.3848 26.5625-74.0234 35.7422-74.0234L97.3633-74.0234C106.494-74.0234 110.889-69.3848 110.889-60.498L110.889-23.1445C110.889-14.2578 106.494-9.61914 97.3633-9.61914L67.7246-9.61914C64.7461-9.61914 63.2812-9.13086 61.2305-6.98242ZM54.834-30.4688C66.2109-19.0918 80.5176-11.9141 89.0137-20.4102C89.3555-20.752 89.5996-21.0938 89.8926-21.4355C91.9922-23.877 92.6758-27.1484 89.7949-29.2969C87.4512-30.957 85.0586-32.666 81.25-35.3027C78.3691-37.3535 76.5625-36.8164 74.3652-34.668L72.4609-32.7637C71.9238-32.2266 70.9473-32.3242 70.3125-32.7148C68.6035-33.7402 65.7715-35.9863 63.0859-38.6719C60.4492-41.3574 58.0566-44.2871 57.0801-45.8984C56.7871-46.4355 56.543-47.3145 57.1777-47.998L59.082-50C61.2305-52.2949 61.7188-53.9551 59.668-56.8848L53.7598-65.2832C51.7578-68.1152 48.7793-67.627 45.5078-65.1855C45.2148-64.9902 45.0684-64.7949 44.873-64.6484C36.3281-56.1035 43.5547-41.748 54.834-30.4688Z"/>
  </g>
  <g id="Regular-M" transform="matrix(1 0 0 1 1383.58 1126)">
   <path d="M42.4805 18.4082C44.873 18.4082 46.5332 17.1387 49.5117 14.502L66.3574-0.488281L97.7051-0.488281C112.256-0.488281 120.068-8.54492 120.068-22.8516L120.068-60.2539C120.068-74.5605 112.256-82.6172 97.7051-82.6172L34.8145-82.6172C20.2637-82.6172 12.4512-74.6094 12.4512-60.2539L12.4512-22.8516C12.4512-8.49609 20.2637-0.488281 34.8145-0.488281L37.1582-0.488281L37.1582 12.207C37.1582 15.9668 39.0625 18.4082 42.4805 18.4082ZM44.4824 9.47266L44.4824-4.6875C44.4824-7.32422 43.457-8.34961 40.8203-8.34961L34.8145-8.34961C24.9512-8.34961 20.3125-13.3789 20.3125-22.9004L20.3125-60.2539C20.3125-69.7754 24.9512-74.7559 34.8145-74.7559L97.7051-74.7559C107.52-74.7559 112.207-69.7754 112.207-60.2539L112.207-22.9004C112.207-13.3789 107.52-8.34961 97.7051-8.34961L66.0645-8.34961C63.3301-8.34961 61.9629-7.95898 60.1074-6.05469ZM54.3945-30.127C65.8203-18.7012 80.3223-11.4746 88.916-20.0195C89.209-20.3613 89.4531-20.6543 89.7461-20.9961C91.9434-23.4863 92.5781-26.7578 89.6973-28.9551C87.4512-30.5664 85.1074-32.2266 81.0547-35.0098C78.1738-37.0605 76.3184-36.5723 74.1211-34.375L72.2168-32.4707C71.6309-31.8848 70.6543-31.9824 70.0195-32.373C68.3105-33.3984 65.4297-35.6934 62.6953-38.4277C60.0098-41.1133 57.6172-44.1406 56.6895-45.752C56.3477-46.2891 56.1035-47.168 56.7383-47.8027L58.6914-49.8535C60.8887-52.1484 61.3281-53.9062 59.2773-56.7871L53.2715-65.2832C51.2695-68.1641 48.291-67.5781 44.9707-65.1855C44.7266-64.9902 44.5312-64.7949 44.3359-64.5996C35.7422-56.0059 43.0176-41.5039 54.3945-30.127Z"/>
  </g>
  <g id="Light-M" transform="matrix(1 0 0 1 1087.68 1126)">
   <path d="M40.4785 17.1875C42.334 17.1875 43.6523 16.1621 45.8496 14.2578L63.0371-0.830078L97.7051-0.830078C110.938-0.830078 118.457-8.49609 118.457-21.5332L118.457-60.791C118.457-73.877 110.938-81.543 97.7051-81.543L33.2031-81.543C19.9707-81.543 12.4512-73.9258 12.4512-60.791L12.4512-21.5332C12.4512-8.44727 19.9707-0.830078 33.2031-0.830078L36.3281-0.830078L36.3281 12.3535C36.3281 15.2832 37.8418 17.1875 40.4785 17.1875ZM41.9922 10.3516L41.9922-4.00391C41.9922-6.05469 41.1621-6.83594 39.1113-6.83594L33.252-6.83594C23.584-6.83594 18.5059-12.207 18.5059-21.582L18.5059-60.7422C18.5059-70.166 23.584-75.4883 33.252-75.4883L97.6562-75.4883C107.227-75.4883 112.402-70.166 112.402-60.7422L112.402-21.582C112.402-12.207 107.227-6.83594 97.6562-6.83594L62.9883-6.83594C60.791-6.83594 59.668-6.49414 58.0566-4.88281ZM52.9785-29.4922C64.2578-18.2129 79.1992-10.6934 87.9883-19.4824C88.2812-19.7266 88.4277-19.9707 88.6719-20.2148C91.2109-22.998 91.6992-26.0742 89.209-28.2227C87.5488-29.4922 85.6445-30.7617 80.0781-34.6191C77.4902-36.377 75.5371-36.1816 73.1445-33.8379L71.1426-31.8848C70.5566-31.2988 69.6777-31.3477 68.9941-31.7383C67.2852-32.7637 64.3066-35.0098 61.377-37.8906C58.5449-40.7227 56.2012-43.7988 55.2734-45.459C54.9316-46.0449 54.834-46.8262 55.4199-47.4609L57.4219-49.6094C59.7168-52.0996 59.9121-54.0039 58.1055-56.543L51.9043-65.3809C49.7559-68.4082 46.6309-67.0898 43.6523-65.0391C43.4082-64.8438 43.2129-64.6484 43.0176-64.4531C34.2285-55.6641 41.748-40.7227 52.9785-29.4922Z"/>
  </g>
  <g id="Thin-M" transform="matrix(1 0 0 1 792.042 1126)">
   <path d="M37.8418 15.5273C38.9648 15.5273 39.8438 14.8926 41.0156 13.8672L58.5938-1.2207L97.7051-1.2207C109.229-1.2207 116.309-8.44727 116.309-19.8242L116.309-61.5234C116.309-72.9004 109.229-80.127 97.7051-80.127L31.0547-80.127C19.5312-80.127 12.4512-72.998 12.4512-61.5234L12.4512-19.8242C12.4512-8.34961 19.5312-1.2207 31.0547-1.2207L35.2051-1.2207L35.2051 12.5977C35.2051 14.4043 36.2793 15.5273 37.8418 15.5273ZM38.623 11.4746L38.623-3.07617C38.623-4.3457 38.1348-4.83398 36.8652-4.83398L31.1523-4.83398C21.7773-4.83398 16.0645-10.6445 16.0645-19.9219L16.0645-61.4258C16.0645-70.7031 21.7773-76.5137 31.1523-76.5137L97.6074-76.5137C106.787-76.5137 112.646-70.7031 112.646-61.4258L112.646-19.9219C112.646-10.6445 106.787-4.83398 97.6074-4.83398L58.9844-4.83398C57.4219-4.83398 56.6406-4.58984 55.3711-3.36914ZM51.123-28.6133C62.207-17.5781 77.7344-9.66797 86.7676-18.7012C87.0117-18.9453 87.0605-19.043 87.207-19.2383C90.2344-22.3145 90.625-25.1465 88.5254-27.2461C87.6465-28.0273 86.377-28.8086 78.7598-34.0332C76.6113-35.5469 74.4629-35.6445 71.875-33.1543L69.7266-31.1035C69.1895-30.5176 68.3105-30.4688 67.627-30.9082C65.9668-31.8848 62.7441-34.082 59.668-37.1582C56.5918-40.2344 54.2969-43.4082 53.4668-45.0684C53.125-45.752 53.125-46.4355 53.6621-47.0215L55.7129-49.3164C58.1543-52.002 58.0078-54.1504 56.4941-56.25L50.0488-65.4297C47.7539-68.7012 44.4336-66.4062 41.8945-64.8438C41.6016-64.6484 41.4062-64.4043 41.2598-64.209C32.2266-55.2246 40.0391-39.7461 51.123-28.6133Z"/>
  </g>
  <g id="Ultralight-M" transform="matrix(1 0 0 1 495.893 1126)">
   <path d="M36.4746 14.6973C37.2559 14.6973 37.8906 14.2578 38.5742 13.7207L56.3477-1.41602L97.7051-1.41602C108.35-1.41602 115.186-8.39844 115.186-18.9453L115.186-61.9141C115.186-72.4121 108.35-79.3945 97.7051-79.3945L29.9316-79.3945C19.2871-79.3945 12.4512-72.5586 12.4512-61.9141L12.4512-18.9453C12.4512-8.25195 19.2871-1.41602 29.9316-1.41602L34.668-1.41602L34.668 12.6953C34.668 13.916 35.4492 14.6973 36.4746 14.6973ZM36.9141 12.1094L36.9141-2.63672C36.9141-3.4668 36.5723-3.80859 35.7422-3.80859L30.0781-3.80859C20.8496-3.80859 14.8438-9.81445 14.8438-19.043L14.8438-61.7676C14.8438-70.9961 20.8496-77.002 30.0781-77.002L97.6074-77.002C106.543-77.002 112.793-70.9961 112.793-61.7676L112.793-19.043C112.793-9.81445 106.543-3.80859 97.6074-3.80859L56.8848-3.80859C55.6641-3.80859 55.0781-3.56445 53.9551-2.58789ZM50.1953-28.1738C61.1328-17.2363 77.002-9.17969 86.1816-18.3594C86.3281-18.5059 86.3281-18.6035 86.4746-18.7012C89.7461-21.9727 90.0391-24.707 88.1836-26.7578C87.6953-27.2949 86.7188-27.832 78.125-33.7402C76.123-35.1074 73.877-35.3516 71.1914-32.8125L68.9941-30.6641C68.457-30.127 67.627-30.0293 66.8945-30.4688C65.2832-31.4453 61.9629-33.5938 58.7891-36.7676C55.6152-39.9902 53.3691-43.2129 52.5391-44.8242C52.1484-45.6055 52.2461-46.1914 52.7344-46.7773L54.834-49.1699C57.373-51.9531 57.0312-54.1992 55.6641-56.1035L49.1211-65.4785C46.7285-68.8477 43.3105-66.0645 41.0156-64.7461C40.7227-64.5508 40.5273-64.3066 40.332-64.1113C31.2012-54.9805 39.1602-39.209 50.1953-28.1738Z"/>
  </g>
  <g id="Black-S" transform="matrix(1 0 0 1 2880.28 696)">
   <path d="M36.9141 10.3516C40.332 10.3516 43.3105 9.08203 47.5098 5.46875L60.1074-5.37109L76.3672-5.37109C88.3789-5.37109 96.4844-13.4766 96.4844-25.4883L96.4844-57.1289C96.4844-69.1406 88.3789-77.2461 76.3672-77.2461L29.8828-77.2461C17.8711-77.2461 9.76562-69.1406 9.76562-57.1289L9.76562-25.4883C9.76562-13.4766 18.8477-5.37109 28.418-5.37109L28.7109-5.37109L28.7109 1.46484C28.7109 7.03125 31.8848 10.3516 36.9141 10.3516ZM40.2344-5.17578L40.2344-15.2344C40.2344-18.3594 38.4766-19.5312 35.9375-19.5312L31.1523-19.5312C26.4648-19.5312 23.9258-21.875 23.9258-26.7578L23.9258-55.8594C23.9258-60.7422 26.4648-63.0859 31.1523-63.0859L75.0977-63.0859C79.7852-63.0859 82.3242-60.7422 82.3242-55.8594L82.3242-26.7578C82.3242-21.875 79.7852-19.5312 75.0977-19.5312L58.8379-19.5312C55.6152-19.5312 54.3457-18.7988 51.9043-16.4551ZM44.5312-32.666C53.2227-23.9746 63.8672-18.6523 70.2148-25C70.5078-25.293 70.752-25.5859 70.9473-25.8789C72.2168-27.7344 72.9492-30.1758 70.6055-31.8359C68.5059-33.3008 66.4551-34.7656 64.3555-36.2305C62.0117-37.8906 60.7422-37.3047 59.1309-35.791L57.7148-34.4238C57.2754-34.0332 56.543-34.082 56.1035-34.375C54.834-35.2051 52.6855-36.9141 50.7324-38.8672C48.8281-40.7715 46.9238-43.0176 46.2402-44.2383C46.0449-44.5801 45.8008-45.2637 46.2891-45.8008L47.6562-47.2656C49.2188-48.9746 49.7559-50.0977 48.0957-52.4902L43.7012-58.7402C42.2363-60.791 40.0879-60.791 37.4023-58.7891C37.207-58.6426 37.0605-58.4961 36.9141-58.3496C30.5176-51.9531 35.8887-41.3086 44.5312-32.666Z"/>
  </g>
  <g id="Heavy-S" transform="matrix(1 0 0 1 2583.76 696)">
   <path d="M36.2793 9.66797C39.4043 9.66797 42.041 8.39844 45.8496 5.07812L58.5938-5.95703L76.416-5.95703C88.4277-5.95703 96.0938-13.6719 96.0938-25.6348L96.0938-56.543C96.0938-68.5059 88.4277-76.2207 76.416-76.2207L29.4434-76.2207C17.4316-76.2207 9.76562-68.5059 9.76562-56.543L9.76562-25.6348C9.76562-13.6719 18.2129-5.95703 28.3203-5.95703L28.9062-5.95703L28.9062 1.5625C28.9062 6.5918 31.7383 9.66797 36.2793 9.66797ZM39.2578-4.10156L39.2578-14.3555C39.2578-17.334 37.6953-18.457 35.2051-18.457L30.4199-18.457C25-18.457 22.2656-21.0938 22.2656-26.6113L22.2656-55.5664C22.2656-61.0352 25-63.7207 30.4199-63.7207L75.4395-63.7207C80.8594-63.7207 83.6426-61.0352 83.6426-55.5664L83.6426-26.6113C83.6426-21.0938 80.8594-18.457 75.4395-18.457L57.5195-18.457C54.4922-18.457 53.2227-17.8223 50.9766-15.625ZM44.2383-32.4219C52.9785-23.6328 63.7695-18.2617 70.166-24.6582C70.459-24.9512 70.7031-25.2441 70.8984-25.5371C72.2168-27.3926 72.9004-29.8828 70.5566-31.543C68.457-33.0078 66.4062-34.4727 64.2578-35.9863C61.8652-37.6953 60.5957-37.1094 58.9844-35.5469L57.5195-34.1797C57.0801-33.7891 56.3477-33.8379 55.9082-34.1309C54.6387-34.9609 52.4414-36.6699 50.4883-38.6719C48.5352-40.5762 46.6309-42.8711 45.9473-44.0918C45.752-44.4336 45.5078-45.1172 45.9961-45.6543L47.3633-47.168C48.9746-48.877 49.5117-50.0488 47.8027-52.4414L43.3594-58.7402C41.8945-60.8398 39.6973-60.791 37.0117-58.7891C36.8164-58.6426 36.6699-58.4961 36.5234-58.3496C30.0781-51.9043 35.498-41.1133 44.2383-32.4219Z"/>
  </g>
  <g id="Bold-S" transform="matrix(1 0 0 1 2287.27 696)">
   <path d="M35.5957 8.88672C38.3789 8.88672 40.5762 7.66602 44.043 4.6875L56.8848-6.64062L76.4648-6.64062C88.4766-6.64062 95.6543-13.916 95.6543-25.8301L95.6543-55.8594C95.6543-67.7734 88.4766-75.0488 76.4648-75.0488L28.9551-75.0488C16.9434-75.0488 9.76562-67.7734 9.76562-55.8594L9.76562-25.8301C9.76562-13.916 17.4316-6.64062 28.2227-6.64062L29.1016-6.64062L29.1016 1.66016C29.1016 6.10352 31.543 8.88672 35.5957 8.88672ZM38.1836-2.92969L38.1836-13.4277C38.1836-16.1621 36.8164-17.2363 34.375-17.2363L29.5898-17.2363C23.3398-17.2363 20.3613-20.2637 20.3613-26.4648L20.3613-55.2246C20.3613-61.4258 23.3398-64.4531 29.5898-64.4531L75.8301-64.4531C82.0801-64.4531 85.0586-61.4258 85.0586-55.2246L85.0586-26.4648C85.0586-20.2637 82.0801-17.2363 75.8301-17.2363L56.0547-17.2363C53.2227-17.2363 52.002-16.6992 50-14.6973ZM43.8965-32.0801C52.7344-23.2422 63.623-17.8223 70.1172-24.3164C70.4102-24.6094 70.6543-24.8535 70.8496-25.1465C72.3145-27.002 72.9004-29.541 70.5566-31.25C68.457-32.7148 66.4062-34.1797 64.1602-35.7422C61.7676-37.4023 60.4492-36.8652 58.8379-35.3027L57.373-33.8867C56.9336-33.4961 56.2012-33.5449 55.7129-33.8379C54.3945-34.668 52.2461-36.4258 50.2441-38.4277C48.2422-40.3809 46.3379-42.6758 45.6543-43.9453C45.4102-44.2871 45.166-44.9707 45.7031-45.5078L47.1191-47.0215C48.7305-48.7305 49.2188-49.9512 47.5586-52.3438L43.0176-58.7402C41.5527-60.8398 39.3555-60.791 36.6211-58.7891C36.4258-58.6426 36.2793-58.4961 36.1328-58.3496C29.5898-51.8066 35.1074-40.918 43.8965-32.0801Z"/>
  </g>
  <g id="Semibold-S" transform="matrix(1 0 0 1 1990.7 696)">
   <path d="M35.1074 8.30078C37.6465 8.30078 39.5996 7.12891 42.7734 4.39453L55.7129-7.08008L76.5137-7.08008C88.5254-7.08008 95.3613-14.0625 95.3613-25.9277L95.3613-55.3711C95.3613-67.2852 88.5254-74.2676 76.5137-74.2676L28.6621-74.2676C16.6504-74.2676 9.76562-67.2852 9.76562-55.3711L9.76562-25.9277C9.76562-14.0625 16.9434-7.08008 28.1738-7.08008L29.248-7.08008L29.248 1.75781C29.248 5.81055 31.4453 8.30078 35.1074 8.30078ZM37.4023-2.09961L37.4023-12.7441C37.4023-15.3809 36.2305-16.3574 33.7891-16.3574L29.0527-16.3574C22.168-16.3574 19.0918-19.6777 19.0918-26.3672L19.0918-54.9805C19.0918-61.6699 22.168-64.9414 29.0527-64.9414L76.0742-64.9414C82.959-64.9414 86.084-61.6699 86.084-54.9805L86.084-26.3672C86.084-19.6777 82.959-16.3574 76.0742-16.3574L55.0293-16.3574C52.3926-16.3574 51.123-15.918 49.2676-14.0137ZM43.6523-31.8848C52.5879-22.998 63.5742-17.5293 70.1172-24.0234C70.4102-24.3164 70.6055-24.6094 70.8496-24.9023C72.3145-26.7578 72.9004-29.3457 70.5566-31.0059C68.457-32.4707 66.4062-33.9844 64.0625-35.5957C61.6699-37.2559 60.3516-36.7188 58.6914-35.1562L57.2754-33.6914C56.8359-33.252 56.0547-33.3496 55.5664-33.6426C54.248-34.4727 52.0996-36.2305 50.0488-38.2812C48.0469-40.2832 46.1426-42.5293 45.4102-43.7988C45.166-44.1895 44.9707-44.873 45.459-45.4102L46.9238-46.9238C48.5352-48.6816 49.0723-49.9023 47.3633-52.2949L42.8223-58.7402C41.3086-60.8887 39.0625-60.791 36.3281-58.7891C36.1328-58.6426 35.9863-58.4961 35.8398-58.3496C29.2969-51.7578 34.8145-40.7715 43.6523-31.8848Z"/>
  </g>
  <g id="Medium-S" transform="matrix(1 0 0 1 1694.09 696)">
   <path d="M34.7168 7.91016C37.1094 7.91016 38.8672 6.73828 41.7969 4.15039L54.7852-7.42188L76.5137-7.42188C88.5254-7.42188 95.166-14.209 95.166-26.0254L95.166-55.0293C95.166-66.8945 88.5254-73.6816 76.5137-73.6816L28.418-73.6816C16.4062-73.6816 9.76562-66.8945 9.76562-55.0293L9.76562-26.0254C9.76562-14.209 16.5527-7.42188 28.125-7.42188L29.3457-7.42188L29.3457 1.80664C29.3457 5.56641 31.3477 7.91016 34.7168 7.91016ZM36.8164-1.46484L36.8164-12.2559C36.8164-14.7949 35.791-15.7227 33.3496-15.7227L28.6133-15.7227C21.3379-15.7227 18.0664-19.2383 18.0664-26.2695L18.0664-54.7852C18.0664-61.8164 21.3379-65.332 28.6133-65.332L76.3184-65.332C83.5938-65.332 86.8164-61.8164 86.8164-54.7852L86.8164-26.2695C86.8164-19.2383 83.5938-15.7227 76.3184-15.7227L54.248-15.7227C51.709-15.7227 50.4883-15.332 48.7793-13.5254ZM43.5059-31.7383C52.4414-22.8027 63.5254-17.2852 70.0684-23.8281C70.3613-24.1211 70.6055-24.4141 70.8496-24.707C72.3633-26.5625 72.9004-29.1504 70.5078-30.8594C68.457-32.3242 66.4062-33.8379 64.0137-35.4492C61.6211-37.1094 60.2539-36.6211 58.6426-35.0098L57.1777-33.5449C56.7383-33.1055 55.957-33.2031 55.4688-33.4961C54.1504-34.3262 51.9531-36.084 49.9023-38.1348C47.9004-40.1855 45.9961-42.4805 45.2637-43.7012C45.0195-44.0918 44.7754-44.8242 45.3125-45.3613L46.7773-46.875C48.4375-48.584 48.9258-49.8535 47.2168-52.2461L42.627-58.7402C41.1133-60.8887 38.8672-60.791 36.1328-58.7891C35.9375-58.6426 35.791-58.4961 35.6445-58.3496C29.0527-51.709 34.5703-40.6738 43.5059-31.7383Z"/>
  </g>
  <g id="Regular-S" transform="matrix(1 0 0 1 1397.53 696)">
   <path d="M34.2773 7.37305C36.4258 7.37305 37.8906 6.25 40.5273 3.85742L53.6133-7.86133L76.5625-7.86133C88.5742-7.86133 94.873-14.3555 94.873-26.1719L94.873-54.5898C94.873-66.4062 88.5742-72.9004 76.5625-72.9004L28.0762-72.9004C16.0645-72.9004 9.76562-66.4062 9.76562-54.5898L9.76562-26.1719C9.76562-14.3555 16.0645-7.86133 28.0762-7.86133L29.4922-7.86133L29.4922 1.85547C29.4922 5.22461 31.2012 7.37305 34.2773 7.37305ZM36.084-0.634766L36.084-11.6211C36.084-14.0137 35.2051-14.8926 32.8125-14.8926L28.0762-14.8926C20.2148-14.8926 16.7969-18.6523 16.7969-26.1719L16.7969-54.5898C16.7969-62.0605 20.2148-65.8203 28.0762-65.8203L76.5625-65.8203C84.4238-65.8203 87.8418-62.0605 87.8418-54.5898L87.8418-26.1719C87.8418-18.6523 84.4238-14.8926 76.5625-14.8926L53.2227-14.8926C50.8789-14.8926 49.6582-14.5508 48.0957-12.8906ZM43.2617-31.543C52.2949-22.5098 63.4277-16.9922 70.0684-23.584C70.3613-23.877 70.6055-24.1699 70.8008-24.4629C72.3633-26.2695 72.9004-28.9551 70.5078-30.6641C68.457-32.1289 66.4062-33.5938 63.9648-35.3027C61.5723-36.9629 60.1562-36.4746 58.5449-34.8145L57.0312-33.3496C56.5918-32.9102 55.8594-33.0078 55.3711-33.3008C54.0039-34.1309 51.8066-35.9375 49.7559-37.9883C47.7051-40.0391 45.8008-42.334 45.0195-43.6035C44.7754-43.9941 44.5801-44.7266 45.1172-45.2637L46.582-46.7773C48.2422-48.5352 48.7305-49.8047 47.0215-52.1973L42.3828-58.7402C40.8691-60.9375 38.623-60.791 35.8887-58.7891C35.6934-58.6426 35.5469-58.4473 35.4004-58.3008C28.7109-51.6602 34.3262-40.5273 43.2617-31.543Z"/>
  </g>
  <g id="Light-S" transform="matrix(1 0 0 1 1101.55 696)">
   <path d="M32.4707 6.29883C34.1797 6.29883 35.3516 5.41992 37.3047 3.61328L50.6836-8.1543L76.5625-8.1543C87.4023-8.1543 93.4082-14.3066 93.4082-25L93.4082-55.0781C93.4082-65.7715 87.4023-71.9238 76.5625-71.9238L26.6113-71.9238C15.7715-71.9238 9.76562-65.8203 9.76562-55.0781L9.76562-25C9.76562-14.2578 15.7715-8.1543 26.6113-8.1543L28.7598-8.1543L28.7598 2.00195C28.7598 4.63867 30.127 6.29883 32.4707 6.29883ZM33.8379 0.146484L33.8379-11.0352C33.8379-12.8418 33.1543-13.5742 31.2988-13.5742L26.6602-13.5742C18.9941-13.5742 15.1855-17.627 15.1855-25.0488L15.1855-55.0293C15.1855-62.4512 18.9941-66.5039 26.6602-66.5039L76.5137-66.5039C84.1309-66.5039 87.9883-62.4512 87.9883-55.0293L87.9883-25.0488C87.9883-17.627 84.1309-13.5742 76.5137-13.5742L50.5371-13.5742C48.6328-13.5742 47.6074-13.2812 46.2891-11.9141ZM42.041-30.957C50.9277-22.0703 62.4512-16.3086 69.2871-23.0957C69.5312-23.3398 69.6777-23.5352 69.873-23.7793C71.7285-25.8301 72.168-28.3203 70.0684-29.9805C68.5547-31.1523 66.8945-32.3242 63.0859-34.9121C60.9863-36.377 59.4727-36.1328 57.666-34.375L56.1523-32.8125C55.7129-32.373 54.9805-32.4219 54.4434-32.7637C53.125-33.5449 50.7812-35.3027 48.584-37.5C46.4355-39.6973 44.5801-42.0898 43.8477-43.3594C43.5547-43.7988 43.457-44.4336 43.9453-44.9707L45.459-46.582C47.2168-48.4863 47.4609-49.9023 45.9473-52.002L41.1621-58.7891C39.5508-61.1328 37.1582-60.3516 34.7168-58.6426C34.5215-58.4961 34.375-58.3008 34.2285-58.1543C27.3926-51.3672 33.2031-39.8438 42.041-30.957Z"/>
  </g>
  <g id="Thin-S" transform="matrix(1 0 0 1 805.763 696)">
   <path d="M30.127 4.88281C31.2012 4.88281 31.9824 4.29688 33.0566 3.32031L46.7773-8.49609L76.5625-8.49609C85.9375-8.49609 91.5527-14.2578 91.5527-23.4863L91.5527-55.7129C91.5527-64.9414 85.9375-70.6543 76.5625-70.6543L24.7559-70.6543C15.3809-70.6543 9.76562-64.9902 9.76562-55.7129L9.76562-23.4863C9.76562-14.1602 15.3809-8.49609 24.7559-8.49609L27.832-8.49609L27.832 2.19727C27.832 3.80859 28.7109 4.88281 30.127 4.88281ZM30.9082 1.17188L30.9082-10.2051C30.9082-11.377 30.4688-11.8164 29.3457-11.8164L24.8047-11.8164C17.4316-11.8164 13.0859-16.2598 13.0859-23.5352L13.0859-55.6152C13.0859-62.9395 17.4316-67.3828 24.8047-67.3828L76.5137-67.3828C83.7402-67.3828 88.2324-62.9395 88.2324-55.6152L88.2324-23.5352C88.2324-16.2598 83.7402-11.8164 76.5137-11.8164L46.9727-11.8164C45.6543-11.8164 44.9707-11.5723 43.8965-10.5469ZM40.4297-30.2246C49.1211-21.5332 61.1816-15.4297 68.2129-22.4609C68.4082-22.6074 68.457-22.7539 68.6035-22.9004C70.8984-25.2441 71.1914-27.5391 69.4824-29.1504C68.6523-29.8828 67.5293-30.5664 61.9629-34.4238C60.2051-35.6445 58.5449-35.6445 56.543-33.7402L54.8828-32.1289C54.4434-31.6895 53.8086-31.6895 53.2227-32.0312C51.9531-32.7637 49.4629-34.5215 47.0703-36.8652C44.7266-39.2578 42.9199-41.748 42.2363-43.0176C41.9922-43.5547 41.9434-44.0918 42.3828-44.5312L43.9941-46.3379C45.8496-48.3887 45.8008-50 44.5801-51.7578L39.5996-58.8867C37.793-61.377 35.2539-59.8145 33.2031-58.4473C32.959-58.3008 32.8125-58.1543 32.666-58.0078C25.6348-50.9766 31.6895-38.9648 40.4297-30.2246Z"/>
  </g>
  <g id="Ultralight-S" transform="matrix(1 0 0 1 509.54 696)">
   <path d="M28.9551 4.10156C29.6387 4.10156 30.2246 3.71094 30.8594 3.17383L44.7266-8.69141L76.5625-8.69141C85.1562-8.69141 90.5762-14.209 90.5762-22.7051L90.5762-56.0059C90.5762-64.502 85.1562-70.0195 76.5625-70.0195L23.7793-70.0195C15.1855-70.0195 9.76562-64.5996 9.76562-56.0059L9.76562-22.7051C9.76562-14.1113 15.1855-8.69141 23.7793-8.69141L27.2949-8.69141L27.2949 2.29492C27.2949 3.41797 27.9785 4.10156 28.9551 4.10156ZM29.3945 1.70898L29.3945-9.81445C29.3945-10.5957 29.0527-10.8887 28.3203-10.8887L23.8281-10.8887C16.6016-10.8887 11.9629-15.5273 11.9629-22.8027L11.9629-55.957C11.9629-63.1836 16.6016-67.8223 23.8281-67.8223L76.4648-67.8223C83.5449-67.8223 88.3301-63.1836 88.3301-55.957L88.3301-22.8027C88.3301-15.5273 83.5449-10.8887 76.4648-10.8887L45.166-10.8887C44.0918-10.8887 43.5547-10.6934 42.6758-9.86328ZM39.5996-29.834C48.1934-21.1914 60.5469-14.9414 67.6758-22.1191C67.8223-22.2656 67.8711-22.3145 67.9688-22.4121C70.459-24.9023 70.7031-27.0996 69.1895-28.7109C68.7012-29.1992 67.8711-29.6875 61.377-34.1309C59.8145-35.2539 58.0566-35.4004 55.957-33.3984L54.2969-31.7871C53.8574-31.3477 53.2227-31.2988 52.6367-31.6406C51.3672-32.373 48.7793-34.082 46.2891-36.5723C43.8477-39.0137 42.0898-41.5527 41.4551-42.8223C41.1621-43.4082 41.1621-43.8965 41.5527-44.3359L43.2129-46.1914C45.166-48.3398 44.9707-50.0977 43.8477-51.6602L38.7695-58.9355C36.9141-61.5234 34.2285-59.4727 32.373-58.3496C32.1289-58.2031 31.9824-58.0078 31.8359-57.8613C24.7559-50.7812 30.9082-38.4766 39.5996-29.834Z"/>
  </g>
 </g>
</svg>
